<svg id="Layer_1" data-name="Layer 1" xmlns="http://www.w3.org/2000/svg" viewBox="0 0 1200 1200"><defs><style>.cls-1{fill:#e9e8e8;}.cls-2,.cls-6{fill:#fff;}.cls-3{fill:#1d252e;}.cls-4,.cls-7{fill:none;stroke-linecap:round;}.cls-4,.cls-6,.cls-7{stroke:#1d252e;stroke-width:4px;}.cls-5{fill:#9dd5c0;}.cls-7{stroke-linejoin:round;}</style></defs><path id="Path-141" class="cls-1" d="M441.86,467.29c110.69-74.84,365-274.08,498.13-158.15s60.26,672.6-332,612.66c-147.36-22.52-370-34.95-401.22-104C154.88,702.94,372.75,514,441.86,467.29Z"/><path id="Path-109" class="cls-2" d="M553.33,727.12,574.8,984.33s-66.42,44.88-66.95,47.66,114.56,1.3,114.56,1.3l-16.11-315Z"/><path id="Path-89" class="cls-3" d="M546.25,520.68c-10.31,68.31-16.51,127-18.61,154.92s-3,45.25-2.71,51.86q127.22,5.1,157.09-1.25t49.61-20.75C708,598.21,689.49,540,681.27,524,669.07,500.2,624.07,492.1,546.25,520.68Z"/><path id="Path-94" class="cls-2" d="M693.09,817.06l58.56,109.63-42.93,78.17a2,2,0,0,0,2.62,2.77q88.78-42.66,93.72-48.25,5.09-5.76-6-27.93L728.26,776"/><path id="Path-94-2" data-name="Path-94" class="cls-4" d="M697.48,825.27l54.17,101.42-42.93,78.17a2,2,0,0,0,2.62,2.77q88.78-42.66,93.72-48.25,5.09-5.76-6-27.93L733.81,787.57"/><path id="Path-96" class="cls-4" d="M613.13,851.3l9.28,182H509.32a2,2,0,0,1-1.13-3.66l66.61-45.3L563,843.63"/><path id="Path-102" class="cls-3" d="M526.42,224.8q-9.63-14.9-6.28-26c3.35-11.13,14.87-27.7,37.91-31.46s46.53,10.85,58.06,31.31q11.52,20.48,10.5,48.08-3.32,9.87-9.78,11.86c-6.46,2-20.61,2.66-26.46-.74Q584.51,254.43,526.42,224.8Z"/><polygon id="Path-103" class="cls-2" points="529.26 223.93 528.39 241.79 536.27 259.87 549.9 270.56 562.07 273.76 568.16 292.91 571.59 305.85 551.3 307.07 558.67 330.19 614.36 334.36 635.04 303.11 603.66 300.76 590.76 264.96 596.34 249.33 597.01 235.84 604.88 232.44 603.28 218.8 595.39 214.04 583.91 215.03 573.26 205.28 571.51 194.91 547.05 218.47 529.26 223.93"/><path id="Path-86" class="cls-4" d="M529.26,223.93a45.91,45.91,0,0,0,5,32.94q8.7,15.42,28.85,16.5l8.45,32.48c-5.63.44-9.26-.37-12.18.53"/><path id="Path-87" class="cls-4" d="M529.47,222.59q4.93,1.6,15.94-4.89t26.1-22.79a20.67,20.67,0,0,0,4.29,13.46A19.8,19.8,0,0,0,586.86,216q9.33-5.73,14.65,1.36c5.33,7.08,4.73,14.43,2.43,16.36q-2.31,1.92-6.93,2.12,2.09,6-1.14,15.73t-5.77,11.22l12.21,38.34,18.73.45"/><path id="Path-88" class="cls-5" d="M683.57,502.46,674,400.57s22-89.06,7.85-93.72c-12-8.23-19.36-11.32-52-5.09q-37.34,26.44-54,20.68c-11.13-3.84-19-9.08-21.56-17.33-21.59,1.07-22.82,0-32.07,11.37s-10.48,11.34-12.21,16.35-8.29,53.78-4.31,58.17,32.77-11.77,32.77-11.77c-4.73,4.13,3.47,38.42,8.64,44.51-.35,3.17-.64,5.85-1.11,20C604.89,436.42,646.76,458.09,683.57,502.46Z"/><path id="Path-98" class="cls-4" d="M559.41,273a21.83,21.83,0,0,0,8.57.21,35.6,35.6,0,0,0,11.89-4.2"/><path id="Path-99" class="cls-4" d="M548.75,352.14q-12,20.25-11.42,40.87T547,423.74l-1.11,20"/><path id="Path-100" class="cls-4" d="M609.26,418.28q14,11,24.81,11.7"/><path id="Path-104" class="cls-4" d="M616.36,262.38a11.35,11.35,0,0,0,6.3-1.93q3.48-2.08,6.38-8.84"/><path id="Path-105" class="cls-3" d="M618.41,266.3c1.83.32,4.56-.52,8.21-2.51s6-5.47,7.07-10.41q4.83-1.49,12.61,6.48c7.77,8,8.58,20.72,14.46,25.78q5.9,5,16.16,7.75-27.13,12.08-42-.92T618.41,266.3Z"/><path id="Path-93" class="cls-2" d="M484,381.14c-6.18-5.22-7.33-42.72-13-114.37,0,0-7.37-4.14-8.46-9.93-3.73-19.76,3.66-31.19,23.39-34.68s.5,11.26,4.51,18q4,6.7,5.84,25.89L506,336.74l2.9.67c5.13,21,4.48,35.29,1.75,47.16C510.65,384.57,488.71,386.21,484,381.14Z"/><path id="Path-93-2" data-name="Path-93" class="cls-4" d="M497.55,384.57c-6.34,0-11.06-1.31-13.57-3.43-6.18-5.22-7.33-42.72-13-114.37,0,0-7.37-4.14-8.46-9.93-3.73-19.76,3.66-31.19,23.39-34.68s.5,11.26,4.51,18q4,6.7,5.84,25.89L506,336.74"/><path class="cls-5" d="M554.57,235.45c-.92.05-9-4.46-13.32-4.23a12.5,12.5,0,0,0-11.81,13.36,12.89,12.89,0,0,0,13.51,12c4.29-.23,11.73-5.59,12.65-5.64a7.63,7.63,0,0,0,7.21-8.15A7.87,7.87,0,0,0,554.57,235.45Z"/><path class="cls-5" d="M503.88,233.85c-1.44.08-14.1-7-20.79-6.61a19.52,19.52,0,0,0-18.45,20.86,20.12,20.12,0,0,0,21.1,18.71c6.69-.36,18.32-8.73,19.76-8.81a11.92,11.92,0,0,0,11.26-12.73A12.29,12.29,0,0,0,503.88,233.85Z"/><path class="cls-5" d="M486,266.79c9-.48,15.7-9.74,15-20.67s-8.62-19.39-17.62-18.9"/><path class="cls-5" d="M509.35,239.36l-3.81.21c-2.44.13-1.52,13.77.91,13.64l4.2-.23"/><path class="cls-5" d="M546,231.56c-1.44.08-14.1-7-20.8-6.61a19.52,19.52,0,0,0-18.44,20.86,20.11,20.11,0,0,0,21.1,18.71c6.69-.36,18.32-8.73,19.76-8.81A11.9,11.9,0,0,0,558.83,243,12.27,12.27,0,0,0,546,231.56Z"/><path class="cls-5" d="M528.61,264.48c9-.49,15.69-9.74,15-20.67S535,224.42,526,224.91"/><path id="Path-108" class="cls-2" d="M603.47,323.9l-20.89-63.8L579,237.66l-15.59-12.22s-16.47-7.85-20-4.56,5.57,31.34,5.57,31.34l8.46,9.93,19.58,97.62,7.19,17.57,10.64,4.3L635.05,366"/><path id="Path-92" class="cls-4" d="M603.12,323.76l-20.47-62.38q-1.85-19.19-5.84-25.88c-4-6.7-19.59-14.21-30.33-14.71s2.13,9.26,2.42,31.43"/><path id="Path-93-3" data-name="Path-93" class="cls-4" d="M604.89,378.33q-14,3.59-19.28-.85-9.27-7.83-28.25-115.33l-8.65-9.45"/><ellipse class="cls-2" cx="482.67" cy="247.12" rx="14.47" ry="16.25" transform="translate(-25.25 57.25) rotate(-6.61)"/><ellipse class="cls-4" cx="482.67" cy="247.12" rx="13.64" ry="15.32" transform="translate(-25.25 57.25) rotate(-6.61)"/><ellipse class="cls-2" cx="524.78" cy="244.83" rx="14.47" ry="16.25" transform="translate(-24.71 62.08) rotate(-6.61)"/><ellipse class="cls-4" cx="525.05" cy="244.83" rx="13.64" ry="15.32" transform="translate(-24.71 62.11) rotate(-6.61)"/><path id="Path-88-2" data-name="Path-88" class="cls-5" d="M681.33,360.05c5.75-9.28,10.38-46.4,1.22-55S656.29,292.48,606,319.7c7.92,18.71,8.45,40.87,4.31,65.21l10.53,4Z"/><path class="cls-4" d="M618.41,388.93s46.75-22.27,49.08-22.27,0,13.28,0,13.28"/><path class="cls-4" d="M512.88,358.34c1.7,8.32.21,17.67-2.23,26.23"/><path class="cls-4" d="M612.47,343.76c2.3,8.17,1.45,22.44-.35,31.16"/><path class="cls-5" d="M454.71,666.56H450.5V507.31l-49-49.05H306L154.64,681v52.54l49.05,49H326.51V791l49,49H450.5V783.55h53.24V715.6Z"/><path class="cls-5" d="M739,581.22A159.57,159.57,0,0,0,707.94,537l-40.63-40.4c-26.39-28-61.65-44.6-101.82-44.6-47.39,0-88.14,23.11-115,60.81-21.42,30.09-34,69.49-34,113.86a214.29,214.29,0,0,0,4.68,45.06q1.71,8,4,15.7a186.43,186.43,0,0,0,31.47,61.37q4.05,5.19,8.41,10,2.63,2.9,5.36,5.64l18.22,18.32.82.83L510.85,805a144.89,144.89,0,0,0,11.67,10.51C578,848.77,635,857,695.35,815.54a153.43,153.43,0,0,0,30.45-32.69.51.51,0,0,0,.09-.13A177.42,177.42,0,0,0,750,732.05V610.2A184.89,184.89,0,0,0,739,581.22Z"/><path class="cls-5" d="M996.33,666.8h-4.21V507.54l-49-49H847.58L764.22,581.22l-68,100v52.54l49,49H868.13v8.41l49,49h75v-56.5h53.24v-68Z"/><ellipse class="cls-6" cx="556.67" cy="622.06" rx="70.78" ry="105.71"/><path class="cls-7" d="M439.33,672.64a202.83,202.83,0,0,1-4.93-44.7c0-89.29,57-161.66,127.29-161.66S689,538.65,689,627.94,632,789.6,561.69,789.6c-32.88,0-62.85-15.83-85.43-41.82"/><polygon class="cls-6" points="323.44 540.48 239.84 659.52 324.38 659.52 323.44 540.48"/><line class="cls-7" x1="383.66" y1="823.2" x2="332.78" y2="766.8"/><line class="cls-7" x1="397.88" y1="766.8" x2="443.47" y2="822.12"/><polygon class="cls-6" points="861.01 540.48 777.41 659.52 861.95 659.52 861.01 540.48"/><polyline class="cls-7" points="717.86 728.75 870.35 728.75 870.35 766.8 935.45 766.8 935.45 728.75 983.86 728.75 983.86 675.54"/><line class="cls-7" x1="921.23" y1="823.2" x2="870.35" y2="766.8"/><line class="cls-7" x1="935.45" y1="766.8" x2="981.04" y2="822.12"/><polyline class="cls-7" points="409.3 683.42 397.88 683.42 397.88 466.94 311.51 466.94 168.18 679.95 168.18 728.75 332.78 728.75 332.78 766.8 397.88 766.8 397.88 728.75 439.96 728.75"/><polyline class="cls-7" points="983.86 675.54 935.45 675.54 935.45 466.94 852.22 466.94 708.89 679.95"/><line class="cls-7" x1="311.61" y1="766.8" x2="205.56" y2="766.8"/><line class="cls-7" x1="468.74" y1="766.8" x2="418.47" y2="766.8"/><line class="cls-7" x1="861.95" y1="766.8" x2="741.53" y2="766.8"/><polyline class="cls-7" points="398.14 466.95 446.55 515.28 446.55 524.42"/></svg>