<svg id="Layer_1" data-name="Layer 1" xmlns="http://www.w3.org/2000/svg" viewBox="0 0 1200 1200"><defs><style>.cls-1{fill:#e9e8e8;}.cls-2{fill:#9dd5c0;}.cls-13,.cls-15,.cls-3,.cls-7{fill:none;}.cls-3,.cls-5,.cls-7,.cls-8{stroke:#1d252e;}.cls-13,.cls-14,.cls-3,.cls-5,.cls-7,.cls-8{stroke-linecap:round;stroke-width:4px;}.cls-3,.cls-5{stroke-miterlimit:10;}.cls-14,.cls-4,.cls-5,.cls-8{fill:#fff;}.cls-6,.cls-9{fill:#1d252e;}.cls-13,.cls-14,.cls-7,.cls-8{stroke-linejoin:round;}.cls-9{font-size:26.9px;font-family:ProximaNova-Semibold, Proxima Nova;font-weight:600;}.cls-10{letter-spacing:-0.01em;}.cls-11{letter-spacing:-0.06em;}.cls-12{letter-spacing:0em;}.cls-13,.cls-14{stroke:#000;}</style></defs><path id="Oval" class="cls-1" d="M600,960.93c189.83,0,343.72-241.76,343.72-412.57S789.83,239.07,600,239.07,256.28,377.54,256.28,548.36,410.17,960.93,600,960.93Z"/><path class="cls-2" d="M267.6,195.78H768.93a0,0,0,0,1,0,0V928.89a13.69,13.69,0,0,1-13.69,13.69H267.6a0,0,0,0,1,0,0V195.78A0,0,0,0,1,267.6,195.78Z" transform="translate(1089.03 52.67) rotate(90.18)"/><path class="cls-3" d="M891,803.26,890.89,821,156,818.74a11.85,11.85,0,0,1-11.82-11.89l1.51-489.48,28.21.09"/><rect class="cls-4" x="304.51" y="202.97" width="471.72" height="702.68" transform="translate(1096.33 15.64) rotate(90.18)"/><polyline class="cls-5" points="189.75 317.37 892.43 319.52 890.98 791.24"/><path class="cls-4" d="M914.81,814.25A12.8,12.8,0,0,1,902,827.05H182.34a12.8,12.8,0,0,1-12.8-12.8v-12.7H914.81Z"/><rect class="cls-6" x="161.81" y="788.6" width="758.55" height="17.63" rx="6.05"/><path class="cls-3" d="M914.81,814.25A12.8,12.8,0,0,1,902,827.05H182.34a12.8,12.8,0,0,1-12.8-12.8"/><rect class="cls-7" x="634.69" y="647.85" width="78.72" height="78.72" rx="5.4"/><polyline class="cls-8" points="671.7 675.11 693.96 686.61 672.63 697.55"/><line class="cls-8" x1="666.69" y1="668.95" x2="654.15" y2="705.46"/><rect class="cls-2" x="270.54" y="608.48" width="78.72" height="78.72" rx="5.4"/><polyline class="cls-7" points="336.13 629.85 297.63 668.35 282.17 652.89"/><circle class="cls-6" cx="530.42" cy="689.7" r="10.67"/><polyline class="cls-3" points="279.41 441.52 309.15 608.49 490.65 546.75 674.05 647.85"/><circle class="cls-2" cx="674.06" cy="647.85" r="10.67"/><circle class="cls-6" cx="620.12" cy="404.22" r="10.67"/><rect class="cls-8" x="240.05" y="362.8" width="78.72" height="78.72" rx="5.4"/><polyline class="cls-8" points="279.41 390.29 257.15 401.79 278.49 412.73"/><line class="cls-8" x1="296.97" y1="384.13" x2="284.43" y2="420.64"/><circle class="cls-2" cx="279.41" cy="441.52" r="10.67"/><circle class="cls-5" cx="309.15" cy="608.48" r="10.67"/><line class="cls-3" x1="349.26" y1="647.85" x2="507" y2="685.47"/><line class="cls-3" x1="528.73" y1="473.02" x2="620.12" y2="404.22"/><rect class="cls-2" x="760.13" y="338.75" width="110.56" height="165.12"/><rect class="cls-6" x="760.13" y="338.75" width="6.59" height="165.12"/><rect class="cls-6" x="777.24" y="361.88" width="80.8" height="10.08"/><line class="cls-3" x1="777.24" y1="392.08" x2="842.19" y2="392.08"/><line class="cls-3" x1="797.87" y1="426.53" x2="853.46" y2="426.53"/><line class="cls-3" x1="797.87" y1="444.44" x2="853.46" y2="444.44"/><line class="cls-3" x1="797.87" y1="462.34" x2="853.46" y2="462.34"/><line class="cls-3" x1="777.24" y1="404.81" x2="858.04" y2="404.81"/><rect class="cls-6" x="777.24" y="421.31" width="10.51" height="10.51"/><rect class="cls-6" x="777.24" y="439.18" width="10.51" height="10.51"/><rect class="cls-6" x="777.24" y="457.05" width="10.51" height="10.51"/><rect class="cls-7" x="450.01" y="468.03" width="78.72" height="78.72" rx="5.4"/><line class="cls-7" x1="471.4" y1="488.88" x2="509.9" y2="527.38"/><line class="cls-7" x1="509.9" y1="488.88" x2="471.4" y2="527.38"/><circle class="cls-2" cx="490.65" cy="546.76" r="10.67"/><path id="Path-88" class="cls-2" d="M884.41,706.83c4.08-32.69,13.58-42,21.46-48.31s54.4,1.39,119.29,51.94c-16.33,24.1-25.34,50.48-58.58,69.3Z"/><path id="Path-103" class="cls-4" d="M827.94,531.49l-24.51-1.4L793.08,550.9v25.51L803.81,596l12.89,10,.63,49.25-33.74,1.65,14.78,29c21.09,10.95,45.61,12.58,71.86,9.49,0,0,50.85-27.43,41.19-34.35s-52-10-52-10l-3.76-41,14.83-15.77"/><path id="Path-86" class="cls-7" d="M795.53,544.86a59,59,0,0,0-3.25,27q2.36,22.74,25.91,34.23l-.86,49.18-9.62.47"/><path id="Path-87" class="cls-7" d="M868.71,596.7q-8.91,9.88-12.76,10.43l1.64,44.26,29.3,2.37"/><path id="Path-98" class="cls-7" d="M813.93,603.72q3.35,2.7,10.14,4.58a46.68,46.68,0,0,0,16.41,1"/><path class="cls-2" d="M769,821.2s-5.78,32-10.28,61.43H938.49a696.58,696.58,0,0,1-4.3-78.68c14-62.65,5.17-108.62-2.35-123.14s-25.19-26.76-34.08-26c-24.28-.58-31.86,9-62.17,7.84-24.24-1.11-45.48-9.92-55.5-8.42-64.67,9.74-2.17,72-22.57,103C747.16,776.67,769,821.2,769,821.2Z"/><path id="Path-93" class="cls-4" d="M666.05,721.58,558.71,712c.86-3.39-21.23-22.4-43.08-27.2-8.67-1.91-5.73,26-2.24,30s20.85,17.46,20.85,17.46,75.46,22.06,116,29.94"/><path id="Path-93-2" data-name="Path-93" class="cls-7" d="M637.37,717.31,558.71,712c.86-3.39-21.23-22.4-43.08-27.2-8.67-1.91-5.73,26-2.24,30s20.85,17.46,20.85,17.46,75.46,22.06,116,29.94"/><path id="Path-88-2" data-name="Path-88" class="cls-2" d="M667.09,781.16C643,770.1,640.57,728.3,644.48,721.29s91.42-45.15,108.41-57.06,45.75,1.79,55.6,28.32-34.13,55.55-34.13,55.55S691.15,792.23,667.09,781.16Z"/><path id="Path-102" class="cls-6" d="M797.42,523.09c1.4-15.2,15.89-29.59,25.76-34.52s33.09-13,59.82,1.41,39.11,48,34.47,77.95q-4.63,30-28,57.3-11.37,7.42-19.63,4.32c-36-13.84-51.82-32.26-59-53.28,0,0,17.8-17,11.41-30.16C814.9,530.92,798.37,555.85,797.42,523.09Z"/><path id="Path-104" class="cls-7" d="M866.32,633.07q2.77,2.38,8,3t13.69-4"/><path id="Path-105" class="cls-6" d="M865.27,638.69q2.44,2.65,10.47,3.95t15.68-5q6.17,2.33,7.74,16.6c1.57,14.27-.54,21.24,2.56,30.76q3.1,9.51,12.7,19.37-38.46-4.8-46.13-29.09C863.18,659.1,859.34,648.53,865.27,638.69Z"/><path class="cls-7" d="M924.55,700.38s12.21,27.63,12.63,44.11-5,45-8.28,50.34"/><line id="Path-25" class="cls-4" x1="996.63" y1="762.54" x2="1000.79" y2="766.56"/><path id="Path-26" class="cls-4" d="M1017.61,714.53c9.4,9.6,33.69,32,38.26,53.61-2,24-100.25,65.24-106.81,85.58-4.45,17.1-17.07,15.66-29.35,13.43-27.93-7.91-11-27.56,5.08-31.16s6.57-4,13.54-8.78c16.16-14.94,55.92-49.1,61.86-59.27l-13.65-11.47C970.13,744.32,1001.2,702.38,1017.61,714.53Z"/><line id="Path-25-2" data-name="Path-25" class="cls-4" x1="996.63" y1="762.54" x2="1000.79" y2="766.56"/><path id="Path-26-2" data-name="Path-26" class="cls-7" d="M1024.24,721.2c9.4,9.6,27.06,25.37,31.63,46.94-2,24-100.25,65.24-106.81,85.58-4.45,17.1-17.07,15.66-29.35,13.43-27.93-7.91-11-27.56,5.08-31.16s6.57-4,13.54-8.78c16.16-14.94,55.92-49.1,61.86-59.27l-6-5.29"/><path class="cls-7" d="M766.57,790.08c-.53,13.51,12.8,29.58,12.8,29.58s.1,15.82-6.34,28"/><path class="cls-7" d="M798.37,685.85c9.75,26.56-10.14,44.36-19,52.24s-21.88,15.76-46.2,22.46"/><path class="cls-7" d="M937.18,744.49s16.6,18.18,23,23"/><ellipse class="cls-3" cx="432.73" cy="379.47" rx="80.38" ry="26.35"/><text class="cls-9" transform="translate(390.7 388.68)"><tspan class="cls-10">S</tspan><tspan class="cls-11" x="15.71" y="0">T</tspan><tspan class="cls-12" x="29.48" y="0">A</tspan><tspan class="cls-10" x="47.58" y="0">R</tspan><tspan x="64.21" y="0">T</tspan></text><line class="cls-8" x1="352.36" y1="379.47" x2="295.53" y2="379.47"/><line class="cls-3" x1="161.81" y1="882.63" x2="1019.48" y2="882.63"/><path class="cls-2" d="M218.18,781.47c11.51,4.88,21,12,30.18,20a165,165,0,0,1,12.43,12.38,16.42,16.42,0,0,1,4.52,7.7,22.28,22.28,0,0,1-.64,12.27l-1.41,1.25a22.21,22.21,0,0,1-12.26-.82,16.27,16.27,0,0,1-7.1-5.4,161.21,161.21,0,0,1-10.82-13.81c-6.89-10-12.83-20.33-16.31-32.35l1.41-1.25Z"/><path class="cls-13" d="M238.31,822.13q-2.72-3.45-5.23-7.06c-6.89-10-12.83-20.33-16.31-32.35l1.41-1.25h0a102.85,102.85,0,0,1,25.17,15.77"/><path class="cls-2" d="M246.74,736.45c8.33,15,13.67,30.92,18.19,47.23,2.15,8,4.06,16.12,5.6,24.27a31.77,31.77,0,0,1,.57,12.55,29.27,29.27,0,0,1-6.21,13.8l-1.85.35A29.47,29.47,0,0,1,252.29,824a31.76,31.76,0,0,1-4-11.92c-1.49-8.16-2.6-16.39-3.47-24.66-1.64-16.85-2.34-33.59,0-50.62l1.85-.34Z"/><path class="cls-13" d="M246.74,736.45c8.33,15,13.67,30.92,18.19,47.23,2.15,8,4.06,16.12,5.6,24.27a31.77,31.77,0,0,1,.57,12.55,29.27,29.27,0,0,1-6.21,13.8l-1.85.35A29.47,29.47,0,0,1,252.29,824a31.76,31.76,0,0,1-4-11.92c-1.49-8.16-2.6-16.39-3.47-24.66-1.64-16.85-2.34-33.59,0-50.62l1.85-.34Z"/><path class="cls-2" d="M299.16,740.05c.17,17.18-2.67,33.7-6.46,50.2-1.93,8.1-4.09,16.11-6.61,24a31.79,31.79,0,0,1-5.47,11.31,29.35,29.35,0,0,1-12,9.2l-1.8-.58a29.41,29.41,0,0,1-4.38-14.49,31.87,31.87,0,0,1,2.17-12.37c2.57-7.89,5.51-15.65,8.67-23.35,6.58-15.61,13.92-30.67,24.1-44.51l1.8.58Z"/><path class="cls-13" d="M299.16,740.05c.17,17.18-2.67,33.7-6.46,50.2-1.93,8.1-4.09,16.11-6.61,24a31.79,31.79,0,0,1-5.47,11.31,29.35,29.35,0,0,1-12,9.2l-1.8-.58a29.41,29.41,0,0,1-4.38-14.49,31.87,31.87,0,0,1,2.17-12.37c2.57-7.89,5.51-15.65,8.67-23.35,6.58-15.61,13.92-30.67,24.1-44.51l1.8.58Z"/><path class="cls-2" d="M318.19,778.72c-5.46,11.16-13.54,20-19.23,30.28-2.72,4.67-5.32,9.56-8,14.59a17.76,17.76,0,0,1-5.56,6.93,24.37,24.37,0,0,1-11.68,4.35l-1.71-.79c-4.45-6.82-5.12-14.72-.84-21.38A69.12,69.12,0,0,1,317,777.26l1.2,1.46Z"/><path class="cls-13" d="M318.19,778.72c-5.46,11.16-13.54,20-19.23,30.28-2.72,4.67-5.32,9.56-8,14.59a17.76,17.76,0,0,1-5.56,6.93,24.37,24.37,0,0,1-11.68,4.35l-1.71-.79c-4.45-6.82-5.12-14.72-.84-21.38A69.12,69.12,0,0,1,317,777.26l1.2,1.46Z"/><path class="cls-2" d="M278.87,721.59c5.4,28.39,4.84,57.09,2.62,85.66-.42,10.36-4.42,20.44-12.85,27.31l-1.88-.17c-7.06-8.26-9.18-18.91-7.73-29.17.86-9.42,2.13-18.79,3.62-28.15,3.18-18.94,7.22-37.56,14.34-55.65l1.88.17Z"/><path class="cls-13" d="M278.87,721.59c5.4,28.39,4.84,57.09,2.62,85.66-.42,10.36-4.42,20.44-12.85,27.31l-1.88-.17c-7.06-8.26-9.18-18.91-7.73-29.17.86-9.42,2.13-18.79,3.62-28.15,3.18-18.94,7.22-37.56,14.34-55.65l1.88.17Z"/><path class="cls-14" d="M229.18,824.84h77a0,0,0,0,1,0,0V877a5.67,5.67,0,0,1-5.67,5.67H234.85a5.67,5.67,0,0,1-5.67-5.67V824.84A0,0,0,0,1,229.18,824.84Z"/><rect x="225.02" y="819.33" width="85.37" height="15.44"/><rect class="cls-15" width="1200" height="1200"/></svg>