<?xml version="1.0" encoding="UTF-8"?><svg id="a" xmlns="http://www.w3.org/2000/svg" xmlns:xlink="http://www.w3.org/1999/xlink" viewBox="0 0 1200 1200"><defs><style>.v,.w,.x,.y,.a`{fill:none;}.w{stroke:#fff;stroke-width:3.45px;}.w,.x,.aa,.ab,.y,.ac,.a`,.ad{stroke-linecap:round;}.w,.aa,.ab,.y,.ac,.a`,.ad{stroke-linejoin:round;}.ae{fill:#e9e8e8;}.af,.ab,.ag,.ac,.ad{fill:#fff;}.ah{fill:#9dd5c0;}.ai,.aj,.aa{fill:#1d252e;}.x,.aa,.ab,.y{stroke:#1d252e;stroke-width:4px;}.aj{font-size:25.04px;}.aj,.ak,.ag{font-family:Altivo-Bold, Altivo;}.ak{fill:#ecec9d;}.ak,.ag{font-size:23.48px;}.ac,.a`{stroke-width:6.97px;}.ac,.a`,.ad{stroke:#9dd5c0;}.al{clip-path:url(#c);}.ad{stroke-width:3.71px;}.am{letter-spacing:0em;}</style><clipPath id="c"><rect class="v" x="104.02" y="458.04" width="650.75" height="392.13"/></clipPath></defs><path id="b" class="ae" d="M441.86,467.29c110.69-74.84,364.98-274.07,498.13-158.15,133.15,115.92,60.25,672.6-332,612.66-147.36-22.52-369.99-34.95-401.22-104.04-51.89-114.82,165.98-303.75,235.08-350.47Z"/><g><g><g><path class="ah" d="M1095.71,463.96l-51.55,349.24c-.01,.59-.05,1.16-.09,1.76l-578.85-.1c-.01-.59-.02-1.16,0-1.76l51.46-349.25c.58-4.34,2.03-8.5,4.3-12.41,2.47-4.24,5.91-8.07,9.96-11.08,1.37-1.02,2.89-1.99,4.58-2.88,4.99-2.68,10.48-4.08,15.91-4.08l517.64,.1c16.93,0,28.88,13.67,26.65,30.47"/><polygon class="ai" points="1071.36 455.3 534.34 455.3 484.84 816.16 1021.86 816.16 1071.36 455.3"/><polygon class="af" points="1063.84 461.87 1060.91 483.21 1060.26 487.92 1016.14 809.6 492.37 809.6 536.5 487.92 540.07 461.87 1063.84 461.87"/><path class="ai" d="M1043.53,827.78l1.68-8.14c.53-3.41-2.11-6.49-5.56-6.48l-691.12,1.17c-4.89,0-9.01,4-9.16,8.91l.57,8.73c-.12,3.77,2.84,4.19,6.57,4.19l697.02-8.38Z"/><path class="af" d="M1043.53,827.78l-2.09,15.32c-.57,4.18-4.14,7.29-8.36,7.28l-683.71-1.17c-4.89,0-9.01-4-9.16-8.91l-.27-8.34c-.12-3.77,2.84-4.19,6.57-4.19h697.02Z"/><path class="y" d="M1042.67,834.08l-1.23,9.03c-.57,4.18-4.14,7.29-8.36,7.28l-683.71-1.17c-4.89,0-9.01-4-9.16-8.91l-.13-4.15"/></g><g><g><path class="aa" d="M1058.33,356.72l-3.84,27.79h-481.71l4.01-29.03c.45-3.25,3.39-5.88,6.55-5.87l471.41,1.22c2.42,0,4.02,2.65,3.57,5.9Z"/><g><ellipse class="ah" cx="589.48" cy="364.23" rx="5.29" ry="4.6" transform="translate(-75.06 560.52) rotate(-48.17)"/><ellipse class="af" cx="606.41" cy="364.23" rx="5.29" ry="4.6" transform="translate(-69.43 573.13) rotate(-48.17)"/><path class="af" d="M624.01,359.23v1.85c.74,0,1.37,.28,1.81,.77,.47,.54,.67,1.3,.55,2.13-.25,1.83-1.96,3.39-3.73,3.39-.73,0-1.36-.28-1.8-.77-.47-.54-.67-1.3-.55-2.13,.25-1.83,1.96-3.38,3.72-3.39v-1.85m0,0c-2.69,0-5.17,2.23-5.55,4.98-.38,2.76,1.49,5.01,4.18,5.01h.02c2.69,0,5.17-2.23,5.55-4.98,.38-2.76-1.49-5.01-4.18-5.01h-.02Z"/></g><path class="ad" d="M740.79,349.97h-60.16c-14.81,0-28.44,12-30.45,26.81l-1.23,9.03h113.78l1.23-9.03c2.01-14.81-8.36-26.81-23.17-26.81Z"/><g><line class="ad" x1="738.58" y1="363.51" x2="748.76" y2="374.95"/><line class="ad" x1="750.18" y1="363.36" x2="737.15" y2="375.1"/></g><polyline class="ab" points="1054.56 384.51 998.61 779.73 516.84 779.73 572.78 384.51"/></g><g><line class="y" x1="727.78" y1="463.48" x2="849.28" y2="463.48"/><line class="y" x1="723.78" y1="492.92" x2="845.28" y2="492.92"/><line class="y" x1="719.25" y1="526.25" x2="840.75" y2="526.25"/><line class="y" x1="596.79" y1="559.59" x2="836.22" y2="559.59"/><line class="y" x1="591.54" y1="598.25" x2="830.97" y2="598.25"/><line class="y" x1="586.29" y1="636.91" x2="825.72" y2="636.91"/><line class="y" x1="582.47" y1="676.6" x2="971.94" y2="676.6"/></g><g><line class="y" x1="871.51" y1="463.48" x2="993.01" y2="463.48"/><line class="y" x1="867.51" y1="492.92" x2="989.01" y2="492.92"/></g><g><text class="aj" transform="translate(749.59 431.66) skewX(-7.74)"><tspan x="0" y="0">A</tspan><tspan class="am" x="19.28" y="0">R</tspan><tspan x="35.76" y="0">TICLE</tspan></text><line class="a`" x1="733.16" y1="424.49" x2="612.98" y2="424.49"/><line class="a`" x1="998.76" y1="424.49" x2="878.59" y2="424.49"/></g><g><polygon class="ac" points="691.88 458.07 610.58 458.07 599.54 539.36 680.84 539.36 691.88 458.07"/><g><polygon class="aa" points="636.63 492.06 611.19 528.24 672.21 528.24 661.96 502.32 649.55 514.2 636.63 492.06"/><ellipse class="aa" cx="656.48" cy="485.04" rx="6.07" ry="5.3" transform="translate(-154.34 578.83) rotate(-43.06)"/></g></g><g><polygon class="ab" points="989.76 519.39 862.72 519.39 846.75 636.91 973.8 636.91 989.76 519.39"/><line class="ab" x1="873.94" y1="530.9" x2="962.28" y2="625.61"/><line class="ab" x1="975.14" y1="530.9" x2="861.07" y2="625.61"/></g></g><g><text class="ak" transform="translate(700.72 735.05)"><tspan x="0" y="0">PUBLISH</tspan></text><path class="ai" d="M682.56,727.62c0,12.3,12.4,22.27,27.71,22.27h82.47c15.3,0,27.71-9.97,27.71-22.27s-12.4-22.27-27.71-22.27h-82.47c-15.3,0-27.71,9.97-27.71,22.27,0,0,0-12.3,0,0Z"/><text class="ag" transform="translate(700.72 735.05)"><tspan x="0" y="0">PUBLISH</tspan></text></g></g><g class="al"><g><path class="af" d="M371.11,1081.18h-65.94v-138.58h-25.44v138.58h-63.78c-9.11,0-16.5,7.39-16.5,16.5h188.15c0-9.11-7.39-16.5-16.5-16.5Z"/><circle class="ai" cx="372.02" cy="1107.66" r="15.59"/><path class="ai" d="M215.04,1092.07c-8.61,0-15.59,6.98-15.59,15.59,0,8.61,6.98,15.59,15.59,15.59s15.59-6.98,15.59-15.59c0-8.61-6.98-15.59-15.59-15.59Z"/><rect class="ai" x="276.32" y="931.17" width="34.42" height="30.77"/><polyline class="x" points="355.1 1081.18 305.17 1081.18 305.17 1025.23"/><line class="x" x1="233.19" y1="1097.68" x2="354.65" y2="1097.68"/><path class="x" d="M279.73,1025.62v55.56h-63.78c-9.11,0-16.5,7.39-16.5,16.5"/><path class="ai" d="M401.49,942.21c23.42-13.93,16.66-31.39,3.78-40.04-12.88-8.65-97.81-13.19-123.62-10.4-25.81,2.78-116.25,6.8-92.46,48.31,16.65,29.04,188.87,16.07,212.29,2.13Z"/><g><path class="ah" d="M249.93,922.2c-2.54,.02-5.11-.09-7.7-.29-15.44-1.26-29.44-6.42-41.13-14.44l11.71-4.6s-27.95-29.85-29.37-49.54c-2.29-31.95-2.04-194.13-2.04-194.13,15.77-18.03,41.48-28.89,68.62-26.68,2.55,.2,5.07,.53,7.54,.96,31.25,5.38,55.89,27.79,59.82,56.51l18.39,134.84c6.94,50.73-33.1,97.21-85.84,97.37Z"/><path class="x" d="M176.35,681.15c19.8-35.9,67.48-48.46,100.46-33.64"/><path class="ai" d="M212.81,902.87l-11.71,4.6c-21.97-15.04-35.8-40.13-35.76-68.18l.19-139.24c0-3.78,.37-7.49,1.06-11.09,2.12-11.11,7.36-21.24,14.82-29.76,0,0-.25,162.17,2.04,194.13,1.41,19.69,29.36,49.54,29.36,49.54Z"/></g><g><g><path id="d" class="ai" d="M349.58,609.9c3.12-9.02,3.07-16.24-.15-21.67-4.83-8.14-17.19-19.06-36.13-17.73-18.94,1.33-34.64,17.21-39.73,35.48-3.39,12.18-3.02,25.46,1.13,39.83,3.04,4.78,6.39,7.28,10.06,7.52,5.5,.36,16.81-1.74,20.77-5.51,2.64-2.51,17.33-15.15,44.06-37.92Z"/><path id="e" class="af" d="M347.16,609.74l4.19,13.91-2.68,15.71-8.67,10.95-8.99,4.79-2.03,27.9,21,2.14-10.18,17.58c-13.52,6.14-28.88,6.35-45.16,3.55l-23.64-25.31,31.88-2,3.73-25.46-7.48-11.27-3.18-10.5-6.89-1.21-1.41-11.04,5.3-5.22,9.27-1.36,6.5-9.66-.66-8.5,23.96,14,15.13,.99Z"/><path id="f" class="y" d="M347.16,609.74c4.22,8.75,5.05,17.71,2.49,26.89-2.56,9.18-9.08,15.3-19.56,18.37l-1.1,28.02,12.42,1.27"/><path id="g" class="y" d="M346.73,608.73c-2.39,1.45-6.9,1.16-13.56-.89-6.65-2.04-15.02-6.41-25.1-13.09,1.1,3.91,.85,7.71-.75,11.4-1.6,3.7-4.01,6.39-7.24,8.07-5.66-1.85-9.43-.58-11.31,3.8-2.82,6.57-.9,12.26,1.3,13.34,1.47,.72,3.43,.85,5.89,.39-.31,3.43,1.02,7.49,3.99,12.18s5.22,7.27,6.76,7.77l-2.72,27.59-18.36,.51"/><path id="h" class="y" d="M332.96,654c-1.56,.88-3.8,1.46-6.73,1.76-2.93,.3-6.33-.07-10.22-1.09"/><path id="i" class="y" d="M285.88,656.25c-1.46,.43-3.25,.31-5.36-.35-2.11-.66-4.37-2.59-6.78-5.78"/><path id="j" class="ai" d="M285.03,659.73c-1.38,.59-3.71,.44-6.98-.46-3.27-.89-5.82-3.19-7.64-6.88-2.74-.18-5.63,2.3-8.69,7.45-4.58,7.72-2.72,17.93-6.37,23-2.44,3.38-6.19,6.42-11.25,9.11,15.88,2.98,26.88,.13,33-8.54,6.12-8.67,8.76-16.56,7.92-23.69Z"/></g><path id="k" class="af" d="M387.59,788.85c16.56,14.43,27.81,20.29,33.76,17.58,5.94-2.7,73.87-23.82,73.87-23.82,0,0,9.15-.23,12.47,0,9.97,.69,28.89-13.25,21.74-18.59-3.2-2.39-20.31-7.35-26.56-6.58-1.86,.23-6.33-7.18-9.1-5.94-3.45,1.54-5.46,12.01-10.32,15.12l-64.63-1.75-9.87-5.74-21.35,29.73Z"/><g><path id="l" class="y" d="M488.18,763.71c-1.5,.88-3.08,1.85-4.74,2.91l-64.63-1.75"/><path id="m" class="y" d="M398.8,797.92c10.54,7.72,18.05,10.56,22.54,8.52,5.94-2.7,73.87-23.82,73.87-23.82,0,0,6.26,.22,12.47,0s28.84-11.47,21.74-18.59c-7.1-7.12-20.31-7.35-26.56-6.58-1.01,.12-2.16,.4-3.44,.82"/></g><path class="ai" d="M413.65,756.04l-2.74,4.23-20.23,31.23-2.79,4.31-.73,1.13-2.63-2.47-29.45-27.68c-2.26,1.09-6.28,21.15-6.28,21.15,0,0,.11,3.55,.28,9.29,.16,5.29,.38,12.45,.6,20.4,.27,9.18,.56,19.43,.8,29.1l-59.36-5.12-26.64,17.03-21.73,13.89-4.57-.35-1.49-.11s4.8-47.59,7.32-91.48c.11-1.97,.22-3.91,.33-5.86-1.97-5.73-3.66-11.32-5.08-16.7-2.05-7.78-3.54-15.14-4.56-21.92,0,0,0-.02,0-.02-2.41-15.98-2.19-28.76-.41-36.31,.5-2.16,1.14-3.89,1.88-5.15,5.17-8.81,19.59-12.24,37.76-14.76,15.18,.44,26.1,26.21,45.04,26.46,15.17,.1,22.44-22.02,28.47-23.93,6.03-1.9,39.99,29.43,66.2,73.66Z"/><g><path id="n" class="af" d="M375.22,810.62c5.96-4.93,13.28-11.23,14.13-12.69,2.02-3.45-20.34-7.25-26.59-6.45-4.17,.53-10.63,3.62-19.38,9.28l-49.56-.98-6.38-17.09-37.99,10.81c3.33,21.71,8.5,32.46,14.42,35.22,5.92,2.76,91.37-12.02,91.37-12.02,0,0,9.76,1.86,12.47-.06"/><path id="o" class="y" d="M290.01,789.6l3.8,10.17,49.56,.97c8.75-5.66,15.21-8.75,19.38-9.28,6.25-.8,28.61,2.99,26.59,6.45-.83,1.41-8.64,16.2-24.31,19.5,0,0-13.53,.53-15.73,0"/><g/><path id="p" class="ai" d="M247.98,799.32l43.3-14.41c-11.12-45.31-9.06-66.82-11.56-74.43-2.5-7.6-15.38-27.34-32.59-23.25-17.21,4.08-16,30.33-14.62,37.96,1.39,7.63,15.47,74.14,15.47,74.14Z"/></g><path class="w" d="M353.43,740.54c5.01,8.78,5.45,23.41-2.56,36.97"/><path class="y" d="M499.22,758.98c-.25-3.19-1.01-9.48-6.28-7.45-5.27,2.03-2.08,10.88-5.1,12.52"/><path class="w" d="M281.51,742.63c7.82,12.69,5.92,40.05,5.92,40.05"/></g><path id="q" class="ah" d="M245.76,832.04c47.91,17.12,90.94,16.74,90.94,16.74,0,0,35.69,21.66,69.86,36.38,26.87,10.75,40.66,16.05,43.25,26.15,2.59,10.09-13.73,61.61-21.08,69.41-7.35,7.8-32.13,19.47-43.43,21.76-88.61-51.16-49.08-69.93-129.78-99.66-20.51-15.86-49.89-45.36-9.77-70.78Z"/><g><path id="r" class="af" d="M360.8,938.87l1.69,18.63-1.71,180.27c.37,12.81,2.49,16.88,6.11,18.5,3.52,1.57,30.71,2.87,81.58,3.92,.5,.01,.97-.22,1.27-.62,.51-.69,.37-1.66-.31-2.17l-55.53-34.86,18.49-175.12-10.59-21.48c-5.43-9.1-44.03-2.01-40.98,12.94Z"/><path id="s" class="x" d="M361.78,1031.87l-1.01,105.9c.37,12.81,2.49,16.88,6.11,18.5,3.52,1.57,30.71,2.87,81.58,3.92,.5,.01,.97-.22,1.27-.62,.51-.69,.37-1.66-.31-2.17l-55.53-34.86,4.74-44.94"/></g><g><path id="t" class="af" d="M376.37,925.86l7.09,7.93,24.49,174.75c2.4,12.59,5.54,19.27,9.44,20.03,3.78,.74,30.57-4.08,80.38-14.47,.49-.1,.9-.43,1.1-.89,.35-.78,0-1.7-.79-2.04l-63.23-27.87-13.16-164.74-16.12-24.24c-9.22-5.21-39.25,20.06-29.2,31.53Z"/><path id="u" class="x" d="M396.7,1028.3l11.24,80.24c2.4,12.59,5.54,19.27,9.44,20.03,3.78,.74,30.57-4.08,80.38-14.47,.49-.1,.9-.43,1.1-.89,.35-.78,0-1.7-.79-2.04l-63.23-27.87-4.48-56.08"/></g><path class="x" d="M314.27,874.86s12.98,19.86,27.67,16.14c14.68-3.72,21.58,20.36,21.58,20.36"/><g><path class="af" d="M143.72,1018.89v110.76c0,24.62-25.21,24.62-25.21,0v-110.11"/><path class="x" d="M143.72,1024.75v104.9c0,24.62-25.21,24.62-25.21,0v-104.17"/><path class="af" d="M737.27,1017.54v112.11c0,24.62-25.21,24.62-25.21,0v-110.43"/><path class="x" d="M737.27,1024.7v104.96c0,24.62-25.21,24.62-25.21,0v-103.98"/><rect class="ai" x="116.09" y="819.98" width="623.55" height="200.98" transform="translate(855.73 1840.94) rotate(-180)"/><line class="x" x1="735.36" y1="855.07" x2="120.97" y2="855.07"/></g><g><g><polygon class="af" points="601.56 807.85 457.23 805.28 455.74 812.95 600.91 813.86 601.56 807.85"/><path class="af" d="M600.59,813.86l-.77,5.14-173.89-.21c-1.23,0-2.27-1.01-2.31-2.24l-.07-2.1c-.03-.95,.71-1.72,1.65-1.72h27.94"/><line class="af" x1="453.15" y1="812.73" x2="601.9" y2="812.68"/><path class="x" d="M600.66,812.62l-.93,6.02-173.79,.15c-1.23,0-2.27-1.01-2.31-2.24l-.07-2.1c-.03-.95,.71-1.72,1.65-1.72h27.94"/><path class="ah" d="M614.9,721.76l-12.93,87.88c0,.15-.01,.29-.02,.44l-145.65,.05c0-.15,0-.29,0-.44l12.91-87.88c.14-1.09,.51-2.14,1.08-3.12,.62-1.07,1.49-2.03,2.51-2.79,.35-.26,.73-.5,1.15-.73,1.25-.67,2.64-1.03,4-1.03l130.25-.04c4.26,0,7.27,3.44,6.71,7.66"/><path class="af" d="M526,761.73c-.97,7.31,4.22,13.23,11.58,13.23,7.36,0,14.12-5.93,15.09-13.24,.97-7.31-4.22-13.23-11.58-13.23-7.36,0-14.12,5.93-15.09,13.24"/><g><path class="x" d="M549.56,750.34c-2.18-1.83-5.05-2.91-8.33-2.91-7.96,0-15.26,6.41-16.3,14.3"/><path class="x" d="M542.32,775.22c5.87-1.95,10.6-7.26,11.43-13.5,.33-2.51,0-4.87-.88-6.92"/><path class="x" d="M524.93,761.73c-.85,6.42,2.69,11.84,8.32,13.65"/></g></g><path class="x" d="M462.26,810.29l11.87-83.39c.6-3.99,3.98-6.97,8.01-7.08l42.75,.29"/></g><rect class="ai" x="704.52" y="1132.41" width="40.22" height="18.25" rx="9.13" ry="9.13" transform="translate(1449.26 2283.08) rotate(-180)"/><rect class="ai" x="109.54" y="1132.41" width="40.22" height="18.25" rx="9.13" ry="9.13" transform="translate(259.3 2283.08) rotate(-180)"/></g></g></g></svg>