<svg id="Layer_1" data-name="Layer 1" xmlns="http://www.w3.org/2000/svg" xmlns:xlink="http://www.w3.org/1999/xlink" viewBox="0 0 1200 1200"><defs><style>.cls-1,.cls-12,.cls-13,.cls-14,.cls-15,.cls-17,.cls-19,.cls-20,.cls-22,.cls-24,.cls-25,.cls-28{fill:none;}.cls-2{fill:#e8e7e6;}.cls-10,.cls-26,.cls-27,.cls-3,.cls-8,.cls-9{fill:#fff;}.cls-4{fill:#221f1f;}.cls-5{fill:#1d252e;}.cls-6,.cls-7{fill:#9cd3bf;}.cls-10,.cls-12,.cls-13,.cls-14,.cls-15,.cls-17,.cls-19,.cls-20,.cls-22,.cls-24,.cls-25,.cls-26,.cls-28,.cls-7,.cls-8{stroke:#1d252e;}.cls-10,.cls-13,.cls-14,.cls-7,.cls-8,.cls-9{stroke-miterlimit:10;}.cls-13,.cls-14,.cls-24,.cls-25,.cls-26,.cls-28,.cls-7,.cls-8{stroke-width:2px;}.cls-9{stroke:#231f20;stroke-width:3px;}.cls-10{stroke-width:2.34px;}.cls-11{fill:#f9f8f8;}.cls-12,.cls-13,.cls-15,.cls-17,.cls-19,.cls-20,.cls-22,.cls-24,.cls-25,.cls-26,.cls-27{stroke-linecap:round;}.cls-12,.cls-15,.cls-17,.cls-19,.cls-25,.cls-26,.cls-27{stroke-linejoin:round;}.cls-15{stroke-width:4px;}.cls-16{clip-path:url(#clip-path);}.cls-17{stroke-width:0.67px;}.cls-18{clip-path:url(#clip-path-2);}.cls-19,.cls-20{stroke-width:0.68px;}.cls-21{clip-path:url(#clip-path-3);}.cls-22{stroke-width:0.66px;}.cls-23{fill:#9dd5c0;}.cls-27{stroke:#9dd5c0;stroke-width:1.85px;}</style><clipPath id="clip-path"><polygon class="cls-1" points="609.94 688.54 580.62 688.54 580.04 688.54 580.04 689.12 580.04 714.35 580.04 714.92 580.62 714.92 609.94 714.92 610.51 714.92 610.51 714.35 610.51 689.12 610.51 688.54 609.94 688.54"/></clipPath><clipPath id="clip-path-2"><polygon class="cls-1" points="609.92 610.09 580.63 610.09 580.04 610.09 580.04 610.67 580.04 636.47 580.04 637.05 580.63 637.05 609.92 637.05 610.51 637.05 610.51 636.47 610.51 610.67 610.51 610.09 609.92 610.09"/></clipPath><clipPath id="clip-path-3"><polygon class="cls-1" points="609.96 549.89 580.63 549.89 580.06 549.89 580.06 550.46 580.06 575.55 580.06 576.12 580.63 576.12 609.96 576.12 610.53 576.12 610.53 575.55 610.53 550.46 610.53 549.89 609.96 549.89"/></clipPath></defs><path id="Path-141" class="cls-2" d="M441.5,468.29c110.69-74.83,365-274.07,498.14-158.15s64,656.2-332,612.66c-155.09-17-370-34.94-401.22-104C154.53,704,372.4,515,441.5,468.29Z"/><rect class="cls-3" x="563.27" y="475.68" width="355.84" height="391.49" rx="8.49"/><rect class="cls-4" x="408.04" y="479.35" width="0.75" height="386.76"/><path class="cls-5" d="M919.1,457.15v22.2H362.93v-22.2a8.32,8.32,0,0,1,8.33-8.33h539.5A8.33,8.33,0,0,1,919.1,457.15Z"/><rect class="cls-6" x="408.42" y="479.35" width="158.3" height="386.76"/><path class="cls-6" d="M408.43,479.35V866.12H371.26a8.33,8.33,0,0,1-8.33-8.34V479.35Z"/><path class="cls-7" d="M393.53,491H379a5.78,5.78,0,0,0-5.77,5.77v14.52a5.78,5.78,0,0,0,5.77,5.77h14.52a5.78,5.78,0,0,0,5.77-5.77V496.8a5.78,5.78,0,0,0-5.77-5.77Z"/><path class="cls-8" d="M394.48,552.56H378.07a4.93,4.93,0,0,1-4.93-4.93V531.22a4.93,4.93,0,0,1,4.93-4.93h16.41c2.72,0,4.92,2.21,4.92,6.24v13.79C399.4,550.35,397.2,552.56,394.48,552.56Z"/><path class="cls-9" d="M857.52,794.16H621.72a7.21,7.21,0,0,1-7.2-7.2V753.27a7.22,7.22,0,0,1,7.2-7.21h235.8a7.22,7.22,0,0,1,7.21,7.21V787A7.21,7.21,0,0,1,857.52,794.16Z"/><path class="cls-5" d="M645.29,781.69h-16.7v-22.6h11.7l5,6.14Z"/><rect class="cls-3" x="632.24" y="769.74" width="8.96" height="0.75"/><rect class="cls-3" x="632.24" y="772.7" width="8.96" height="0.75"/><rect class="cls-3" x="632.24" y="775.67" width="5.79" height="0.75"/><rect class="cls-5" x="658.37" y="757.16" width="97.98" height="10.59"/><rect class="cls-5" x="418.93" y="490.81" width="45.44" height="8.08"/><rect class="cls-5" x="597.89" y="493.1" width="45.44" height="8.08"/><rect class="cls-5" x="597.89" y="505.75" width="106.97" height="8.08"/><rect class="cls-5" x="435.05" y="507.5" width="52.52" height="8.08"/><rect class="cls-5" x="435.05" y="554.68" width="52.52" height="8.08"/><rect class="cls-5" x="435.05" y="578.96" width="58.25" height="8.08"/><rect class="cls-5" x="435.05" y="603.24" width="68.28" height="8.08"/><rect class="cls-5" x="435.05" y="627.52" width="52.52" height="8.08"/><rect class="cls-5" x="435.05" y="696.59" width="52.52" height="8.08"/><rect class="cls-5" x="435.05" y="720.87" width="58.25" height="8.08"/><rect class="cls-5" x="533.76" y="720.24" width="12.93" height="9.34" rx="4.67"/><rect class="cls-5" x="435.05" y="745.15" width="52.52" height="8.08"/><rect class="cls-5" x="435.05" y="769.43" width="52.52" height="8.08"/><rect class="cls-5" x="418.93" y="507.5" width="8.08" height="8.08" rx="4.04"/><rect class="cls-10" x="530.23" y="489.88" width="26.38" height="26.38" rx="13.19"/><path class="cls-8" d="M543.42,489.88a13.18,13.18,0,0,1,13.19,13.19h0a13.19,13.19,0,0,1-13.19,13.19h0a13.19,13.19,0,0,1-13.19-13.19h0a13.18,13.18,0,0,1,13.19-13.19h0"/><path class="cls-11" d="M901.53,829.92v20.8a4.7,4.7,0,0,1-4.69,4.7H586.19a4.71,4.71,0,0,1-4.7-4.7v-20.8Z"/><path class="cls-9" d="M896.84,855.8H586.19a5.08,5.08,0,0,1-5.07-5.08v-41.6a5.08,5.08,0,0,1,5.07-5.08H896.84a5.09,5.09,0,0,1,5.07,5.08v41.6A5.09,5.09,0,0,1,896.84,855.8Z"/><rect class="cls-5" x="592.84" y="811.79" width="36.58" height="10.15"/><rect class="cls-5" x="636.72" y="811.79" width="97.92" height="10.15"/><rect class="cls-6" x="508.72" y="454.25" width="282.3" height="20.75" rx="5.22"/><path class="cls-6" d="M785.81,475.19H513.94a5.4,5.4,0,0,1-5.4-5.4V459.47a5.41,5.41,0,0,1,5.4-5.41H785.81a5.42,5.42,0,0,1,5.41,5.41v10.32A5.41,5.41,0,0,1,785.81,475.19Z"/><circle class="cls-12" cx="565.94" cy="463.58" r="2.68"/><line class="cls-12" x1="570.72" y1="468.36" x2="567.84" y2="465.47"/><rect class="cls-3" x="579.89" y="461.41" width="149.59" height="6.94"/><polyline class="cls-13" points="408.31 865.11 408.31 479.36 408.31 475.52"/><line class="cls-13" x1="409.17" y1="528.27" x2="919.1" y2="528.27"/><line class="cls-14" x1="409.17" y1="662.29" x2="565.99" y2="662.29"/><rect class="cls-5" x="620.61" y="550.4" width="45.44" height="7.14"/><line class="cls-15" x1="622.59" y1="565.1" x2="810.22" y2="565.1"/><line class="cls-15" x1="622.59" y1="575.45" x2="759.82" y2="575.45"/><rect class="cls-5" x="620.61" y="610.94" width="45.44" height="7.14"/><line class="cls-15" x1="622.59" y1="626.3" x2="790.42" y2="626.3"/><line class="cls-15" x1="622.59" y1="635.75" x2="790.42" y2="635.75"/><rect class="cls-5" x="620.61" y="688.71" width="45.44" height="7.14"/><line class="cls-15" x1="622.59" y1="705.04" x2="814.72" y2="705.04"/><line class="cls-15" x1="622.59" y1="714.04" x2="744.98" y2="714.04"/><line class="cls-15" x1="660.5" y1="776.71" x2="753.89" y2="776.71"/><line class="cls-13" x1="566.72" y1="479.35" x2="566.72" y2="865.05"/><polygon class="cls-3" points="610.22 688.27 580.37 688.27 579.78 688.27 579.78 688.86 579.78 714.61 579.78 715.2 580.37 715.2 610.22 715.2 610.81 715.2 610.81 714.61 610.81 688.86 610.81 688.27 610.22 688.27"/><g class="cls-16"><g id="Group-4"><path id="Path-20" class="cls-17" d="M590.86,706.24q.95-.27,1.56-.42c.06-1.58.22-3.34.47-5.26a4.2,4.2,0,0,1-1-1.11,6.16,6.16,0,0,1-.45-1.61c-1.35,0-2-.57-1.87-1.65s.75-1.52,2-1.29"/><path id="Path-21" class="cls-17" d="M599.05,693.47a5.82,5.82,0,0,1,1.12,4q-.79,3.32-3.37,3.77l.34,4.64,2.19.39"/><path id="Path-22" class="cls-17" d="M590.1,694.26a2.76,2.76,0,0,1,1.7-.2"/><path id="Path-23" class="cls-5" d="M589.82,693.67a5.92,5.92,0,0,1,2.31-.39c.08-.28.18-.59.3-.94q1.91,2.35,6.07.11c4.17-2.25-.26-9.42-4.45-6.76-1.51,1-2.36,1.82-2.57,2.51-1.15.06-1.86.41-2.13,1.06Q588.56,690.55,589.82,693.67Z"/></g><polygon id="Path-35" class="cls-3" points="609.08 709.59 611.32 709.59 608.06 701 607.13 699 604.17 695.51 603.08 692.66 603.85 690.24 605.26 690.21 608.57 693.93 610.15 697.82 614.99 705.75 617.97 712.18 618.54 714.63 618.21 716.71 617.29 717.82 615.39 718.25 614.29 718.28 609.16 715.81 609.08 709.59"/><path class="cls-6" d="M589,706.67s-6.93,1.62-8.49,3.85,2.08,6.59,2.08,6.59h27.24s-.38-7.45-.79-8.11-8.85-2.76-8.85-2.76l-4.36,3.1Z"/><line id="Path-25" class="cls-17" x1="609.95" y1="709.58" x2="611.32" y2="709.59"/><path id="Path-26" class="cls-17" d="M613.12,714.36a112,112,0,0,1-5.29-14.19A5.48,5.48,0,0,0,606.2,698a10.6,10.6,0,0,1-2.8-4.12c-.65-2,0-5.46,2.61-3a16.76,16.76,0,0,1,4.2,7.08q9.06,14.4,8.23,17.77c-.84,3.37-3.25,2.12-4.3,2.61"/><path id="Path-27" class="cls-17" d="M604.8,695.13c-.34-1.54-.16-2.22.53-2s1.52,1.61,2.46,4.33"/></g><polygon class="cls-3" points="610.21 609.81 580.38 609.81 579.78 609.81 579.78 610.41 579.78 636.74 579.78 637.34 580.38 637.34 610.21 637.34 610.81 637.34 610.81 636.74 610.81 610.41 610.81 609.81 610.21 609.81"/><path class="cls-6" d="M602.81,625c-.57-.6-9.72-.52-10.18.05a4.52,4.52,0,0,0-.16,3.08c.26.44,10.09.29,10.34,0S603.38,625.64,602.81,625Z"/><path class="cls-3" d="M600.56,613.37l1.39,1.89a5.24,5.24,0,0,1,0,6.24,6.73,6.73,0,0,1-2.35,1.69l.33,4.59,3.57.86L601.12,632h-7.41l-.84-3.37,2.23-.89.35-4.17-.94-3-.51-7.22Z"/><g class="cls-18"><g id="Group-4-2" data-name="Group-4"><path id="Path-20-2" data-name="Path-20" class="cls-19" d="M593.5,628.18c.65-.19,1.18-.33,1.6-.43.06-1.61.39-4.55.39-4.55s-2.3-1.66-2.26-3.42a1.51,1.51,0,0,1-2.09-1.84"/><path id="Path-21-2" data-name="Path-21" class="cls-19" d="M601.87,615.12a6,6,0,0,1,1.15,4.06q-.81,3.39-3.44,3.85l.34,4.75,2.24.39"/><path class="cls-5" d="M596.76,607.18c-1.54,1-2.42,1.86-2.63,2.55-1.17.07-1.9.43-2.17,1.09a11.28,11.28,0,0,0-.84,4.34,8.32,8.32,0,0,1,3.53.87c0-1,.09-1.79.46-2.06q1.93,2.41,6.2.11C605.57,611.78,601,604.45,596.76,607.18Z"/></g><path class="cls-6" d="M592.35,628.55s-4.57-.12-6.16,2.15l.28,7,23.62.72.09-8.19c-1.58-2.14-7.1-2-7.1-2s-3.07,3.57-4.83,3.64S592.35,628.55,592.35,628.55Z"/><path id="Path-108" class="cls-3" d="M585.59,631.5l-1.08-.47,4-8.54a11,11,0,0,0,1.29-3,9.64,9.64,0,0,0-.05-2.76s-.44-3.14-1.15-3c-4.5,2.5-3.1,4.85-3.1,4.85l.09,1.83L578.56,632l-1,2.46.5,1.79,5.63,2.38Z"/><path id="Path-93" class="cls-20" d="M583.25,638.2c-4.29-.32-5.8-2-5.57-3.55-.11-1.12,2.77-5.4,7.94-14.22a16.13,16.13,0,0,1-.34-2.81c-.06-1.57,2.49-3.93,3.35-3.87s1.46,4.36,1.31,5.44a9.85,9.85,0,0,1-1.64,3.35s-4.16,8.48-3.9,8.56a4.28,4.28,0,0,0,1.17-.07"/><path class="cls-5" d="M591.19,615.88a9.61,9.61,0,0,1,3.36.69l0,3.1c0,.17-.61.17-.61,0l-.27-1.89-2.45-.45Z"/><path class="cls-6" d="M592.19,629.33s-.17-3.39.33-3.58,5.18,2.41,5.18,2.41l.2,4.27Z"/><path class="cls-6" d="M603.16,629.33s.16-3.39-.28-3.58-5.18,2.41-5.18,2.41l.2,4.27Z"/></g><polyline class="cls-3" points="579.78 575.81 579.78 576.4 580.37 576.4 610.23 576.4 610.81 576.4 610.81 575.81 610.81 550.21 610.81 549.62 610.23 549.62 580.37 549.62 579.78 549.62 579.78 550.21"/><g class="cls-21"><path id="Path-102" class="cls-5" d="M587.78,555.75a4.29,4.29,0,0,1-.13-3.66,6.51,6.51,0,0,1,6-3.26c3.21.09,6,2.65,7,5.69a12.2,12.2,0,0,1,.1,6.72,2.3,2.3,0,0,1-1.64,1.34,6.12,6.12,0,0,1-3.54-.77C595,561.41,592.46,559.38,587.78,555.75Z"/><polygon id="Path-103" class="cls-3" points="588.19 555.7 587.59 558.08 588.15 560.71 589.7 562.49 591.25 563.23 591.55 565.95 591.66 567.78 588.94 567.86 589.26 570.72 596.64 572.7 599.53 569.4 598.6 568.45 596.11 567.91 595.35 562.78 596.53 560.82 596.98 559.03 598.13 558.77 598.29 556.9 597.36 556.06 595.79 555.9 594.62 554.32 594.66 552.88 590.73 555.42 588.19 555.7"/><path id="Path-86" class="cls-22" d="M588.19,555.7a6.23,6.23,0,0,0-.22,4.55,4.41,4.41,0,0,0,3.43,3l.26,4.58a8.1,8.1,0,0,0-1.78-.06"/><path id="Path-87" class="cls-22" d="M588.25,555.53a3.21,3.21,0,0,0,2.28-.25,17.87,17.87,0,0,0,4.14-2.4,2.77,2.77,0,0,0,.21,1.92,2.64,2.64,0,0,0,1.28,1.31c.94-.36,1.58-.17,1.93.55.53,1.09.25,2.06-.12,2.26a1.6,1.6,0,0,1-1,.11,3.37,3.37,0,0,1-.58,2.08c-.46.81-.82,1.26-1.08,1.36l.6,5.46,2.51.54"/><path id="Path-88" class="cls-6" d="M588.91,568.08a3.94,3.94,0,0,0,2.47,2.8c1.44.71,4,.08,7.72-1.9a19.06,19.06,0,0,1,7,1.56,64.12,64.12,0,0,1,8.72,5.64c-.9,1.47-1.76,2.77-2.56,3.89a16.87,16.87,0,0,0-2,3.62l-7.63-3,3.58,18-19.19,2.56c-.17-3.05-.27-5.2-.32-6.45-.19-5.09-.2-8.1-.14-8.93.07-1.13-.08-1.79-.46-2l-.32,2.52-7.38-2.2q2.44-11.55,4.24-14C583.88,568.57,586,567.87,588.91,568.08Z"/><path id="Path-98" class="cls-22" d="M590.91,563.05a2.93,2.93,0,0,0,1.15.25,4.84,4.84,0,0,0,1.71-.26"/><path id="Path-99" class="cls-22" d="M586.54,574.87a10.29,10.29,0,0,0-1.32,5.68,6.41,6.41,0,0,0,1.5,4.13l-.07,6.24"/><path id="Path-100" class="cls-22" d="M594.22,585.5a6.38,6.38,0,0,0,3.29,1.78"/><line id="Path-101" class="cls-22" x1="601.91" y1="582.12" x2="602.48" y2="589.25"/><path id="Path-104" class="cls-22" d="M598.86,563.08a1.48,1.48,0,0,0,.9-.1,2.48,2.48,0,0,0,1.1-1"/><path id="Path-105" class="cls-5" d="M599,563.66a2,2,0,0,0,1.18-.13,2,2,0,0,0,1.23-1.21c.46-.05,1,.34,1.52,1.19.83,1.27.59,3,1.25,3.83a5.44,5.44,0,0,0,2,1.45c-2.65.62-4.53.22-5.62-1.19A5.87,5.87,0,0,1,599,563.66Z"/></g><polygon class="cls-3" points="993.3 689.89 997.65 705.42 991.53 708 987.37 690.77 993.3 689.89"/><path class="cls-5" d="M986.49,669.64c-2.71-1.4-8.38-1.84-11.49-.68l3.55,22.85s6.91-.23,16.11,0C995.35,680,989.21,671.05,986.49,669.64Z"/><path class="cls-23" d="M952.62,790.53c-1.17,0-2.34,0-3.53-.14a38.92,38.92,0,0,1-18.88-6.62l5.38-2.11s-12.83-13.7-13.48-22.74c-1.05-14.66-.93-89.07-.93-89.07,7.24-8.28,19-13.26,31.49-12.24,1.17.09,2.32.24,3.46.44,14.33,2.47,25.64,12.75,27.44,25.93L992,745.85C995.19,769.13,976.82,790.45,952.62,790.53Z"/><path class="cls-24" d="M918.52,679.83c10.49-19,38.05-23.76,52.57-11.35"/><path class="cls-3" d="M1008,864.45H977.77V800.87H966.09v63.58H936.83a7.57,7.57,0,0,0-7.57,7.57h86.33A7.57,7.57,0,0,0,1008,864.45Z"/><circle class="cls-5" cx="1008.44" cy="876.6" r="7.15"/><circle class="cls-5" cx="936.41" cy="876.6" r="7.15"/><rect class="cls-5" x="964.53" y="795.62" width="15.79" height="14.12"/><path class="cls-24" d="M1015.59,872a7.57,7.57,0,0,0-7.57-7.57H977.77v-50.6"/><line class="cls-24" x1="944.74" y1="872.02" x2="1000.47" y2="872.02"/><path class="cls-24" d="M966.09,813.09v51.36H936.83a7.57,7.57,0,0,0-7.57,7.57"/><path class="cls-5" d="M1022,800.68c10.75-6.39,7.64-14.4,1.74-18.37s-44.88-6-56.73-4.77-53.34,3.12-42.42,22.17C932.19,813,1011.21,807.08,1022,800.68Z"/><path class="cls-5" d="M935.59,781.66l-5.38,2.11a37.71,37.71,0,0,1-16.4-31.29l.08-63.89a27.7,27.7,0,0,1,.49-5.09,29.11,29.11,0,0,1,6.8-13.65s-.12,74.41.94,89.07C922.76,768,935.59,781.66,935.59,781.66Z"/><path id="Path-32" class="cls-3" d="M1020.09,858.55c.43,1.39,2.84,15.81,4.19,15.78s37.49-7.69,32.07-9.77-22.29-7.74-23.14-10.54l-1.48-8.55-15.65-.65S1019.81,857.62,1020.09,858.55Z"/><path id="Path-32-2" data-name="Path-32" class="cls-25" d="M1018.21,852.37l1.88,6.18c.43,1.39,2.84,15.81,4.19,15.78s37.49-7.69,32.07-9.77-22.29-7.74-23.14-10.54"/><path id="Path-33" class="cls-3" d="M1062.86,858.1l28.5-16.25a1,1,0,0,0-.43-1.76q-26.64-2.16-27.84-4.05l-5.78-8.2-11.39,5.25S1060.76,855.17,1062.86,858.1Z"/><path id="Path-33-2" data-name="Path-33" class="cls-25" d="M1048.81,837.05c5.54,7.59,12,18.12,14,21.05l28.5-16.25a1,1,0,0,0-.43-1.76c-21.22-1-28-3.64-29.08-5.81"/><path class="cls-23" d="M1037.68,835.73l-9.48-53.12,8.69,61.2c-.06,6.18-25,6.24-25.08,2.79l-8-51.1c-3.76-3.67-63.24-13.17-67.26-27s-1.3-24.19-1.3-24.19L986,739.16,1040.5,754l23.14,73.56C1064.1,833.75,1038.09,839.16,1037.68,835.73Z"/><path id="Path-36" class="cls-3" d="M951.6,669.47l6.41-1.64,2.06-13.7-2-3L957.6,647l-3-.73-1.14-3,1.23-2.92,1.07-.77-.55-5.43,20.27,1.22,1.08.81,1.95,5.57.63,6.09-1.93,4.86-2.72,2.79-3.59,1.69-1.22-.3-1.53,11.8,7.61.72c-.27,3-3.07,5.6-7.26,8.08l-17.38-.25Z"/><path id="Path-20-3" data-name="Path-20" class="cls-25" d="M954.13,668.66l3.81-.31s.81-9.66,2.13-14.22a10.43,10.43,0,0,1-2-3,15.68,15.68,0,0,1-.5-4.07q-4.86-.78-3.91-4.67t5.2-2.39"/><path id="Path-21-3" data-name="Path-21" class="cls-25" d="M977.52,639.27q2.6,6.11,1.27,10-3.15,7.71-9.51,7.86l-1.1,11.56,4.78.23"/><path id="Path-22-2" data-name="Path-22" class="cls-25" d="M955.62,637.9a6.69,6.69,0,0,1,4.17.15"/><path id="Path-23-2" data-name="Path-23" class="cls-5" d="M955.17,636.39a13.66,13.66,0,0,1,5.71-.1c.3-.65.66-1.38,1.08-2.17q3.72,6.39,14.61,2.49c10.89-3.92,2.81-22.85-8.27-18q-6,2.76-7.12,5.11-4.21-.4-5.53,1.78Q953.25,628.39,955.17,636.39Z"/><path id="Path-24" class="cls-5" d="M952,669.38c3.48,4.75,7.38,6.2,12.9,6s10-2.2,10.06-6.4c6.77-1.68,17.67,33.21,17.67,33.21.13,10.16,3.25,32.5,1.41,36.82s-13.8,8.84-26.87,8.83-20.34,3.51-31.61-2.29c0,0-14.72-45.78-7.29-68.57C931.43,667.42,947.78,670.69,952,669.38Z"/><path class="cls-24" d="M936,749.19s4.82,18.36,11.52,24.16c8.35,7.23,38.4,13.15,38.4,13.15"/><path class="cls-25" d="M997.65,790.53s6.54,1.91,8.66,3.5,2.13,18.17,2.13,18.17"/><path class="cls-3" d="M985.61,746l-48.85-13.83-6.51-18.62c-.07-.21-.13-.43-.2-.64-1.83-5.87-2.63-10.91,2.67-15.06a13.1,13.1,0,0,1,7.21-2.82,9,9,0,0,1,8.61,4.17l1.5,10,2.87,13.06,34.46,14.13Z"/><path class="cls-5" d="M946.85,690.26c-7.6-2.35-14.11-1.79-19.37,2.17l0,12.93s16.87,6.84,26.07,7.07C952.72,703.33,946.85,690.26,946.85,690.26Z"/><polyline class="cls-25" points="1027.75 785.09 1020.1 769.24 999.18 761.35"/><polygon class="cls-3" points="1051.3 748.93 985.12 746.16 984.35 749.66 1050.93 751.68 1051.3 748.93"/><path class="cls-3" d="M1050.79,751.68l-.42,2.35-79.76-2a1.06,1.06,0,0,1-1-1v-1a.75.75,0,0,1,.77-.77l12.82.3"/><line class="cls-3" x1="983.16" y1="749.53" x2="1051.4" y2="751.15"/><path class="cls-24" d="M1050.83,751.11l-.5,2.75L970.61,752a1.06,1.06,0,0,1-1-1v-1a.75.75,0,0,1,.77-.77l12.82.3"/><path class="cls-23" d="M1058.36,709.59l-6.9,40.17c0,.07,0,.13,0,.2l-66.82-1.59a1.27,1.27,0,0,0,0-.2L991.53,708a3.89,3.89,0,0,1,.53-1.42,4.26,4.26,0,0,1,1.18-1.25,2.85,2.85,0,0,1,.54-.32,3.77,3.77,0,0,1,1.84-.43l59.75,1.42a3,3,0,0,1,3,3.59"/><path class="cls-3" d="M1017.14,726.94a5.23,5.23,0,0,0,5.17,6.2,7.19,7.19,0,0,0,7.07-5.91,5.22,5.22,0,0,0-5.17-6.19,7.18,7.18,0,0,0-7.07,5.9"/><path class="cls-24" d="M1028.08,722a5.82,5.82,0,0,0-3.79-1.43,7.76,7.76,0,0,0-7.64,6.38"/><path class="cls-24" d="M1024.48,733.31a7.8,7.8,0,0,0,5.39-6.07,6,6,0,0,0-.33-3.18"/><path class="cls-24" d="M1016.65,726.93a5.62,5.62,0,0,0,3.67,6.36"/><path class="cls-24" d="M987.37,748.51l6.36-38.12a3.83,3.83,0,0,1,3.76-3.16l19.6.6"/><line class="cls-24" x1="994.1" y1="693.49" x2="996.59" y2="702.82"/><path class="cls-3" d="M241,851h30.14V787.66h11.63V851h29.15a7.55,7.55,0,0,1,7.54,7.54h-86A7.54,7.54,0,0,1,241,851Z"/><circle class="cls-5" cx="240.53" cy="863.1" r="7.12"/><circle class="cls-5" cx="312.28" cy="863.1" r="7.12"/><rect class="cls-5" x="268.54" y="782.43" width="15.73" height="14.06" transform="translate(552.82 1578.92) rotate(-180)"/><path class="cls-24" d="M233.41,858.54A7.54,7.54,0,0,1,241,851h30.14V800.59"/><line class="cls-24" x1="284.69" y1="858.54" x2="248.47" y2="858.54"/><line class="cls-24" x1="303.99" y1="858.54" x2="295.02" y2="858.54"/><path class="cls-24" d="M295,851h16.85a7.55,7.55,0,0,1,7.54,7.54"/><polyline class="cls-24" points="282.72 799.83 282.72 851 284.69 851"/><path class="cls-23" d="M296.07,778c1.16.06,2.33.07,3.52,0a38.59,38.59,0,0,0,19.09-5.71L313.43,770s13.4-13,14.47-22c1.73-14.54,5.09-88.6,5.09-88.6-6.81-8.57-18.31-14.08-30.75-13.65-1.17,0-2.33.13-3.47.28-14.38,1.78-26.11,11.49-28.52,24.52L259,731.71C254.71,754.73,272,776.8,296.07,778Z"/><path class="cls-24" d="M334.83,669.52C326.56,652.7,305.06,646,289.69,652"/><path class="cls-5" d="M313.43,770l5.25,2.35A37.54,37.54,0,0,0,336.47,742l2.9-63.57a26.86,26.86,0,0,0-.25-5.09A28.83,28.83,0,0,0,333,659.39s-3.36,74.06-5.09,88.6C326.83,757,313.43,770,313.43,770Z"/><path class="cls-5" d="M227.06,787.47c-10.71-6.36-7.61-14.34-1.73-18.3s44.71-6,56.51-4.75S335,767.53,324.1,786.5C316.49,799.78,237.77,793.84,227.06,787.47Z"/><path id="Path-89" class="cls-23" d="M303.33,740.67a134.1,134.1,0,0,1-42.26.35,302.89,302.89,0,0,1-34.33,10.85c-13,2.72-19.58,4-21.54,8.36s1.31,28.82,4,32.91,12.93,11.31,17.83,13.23c43.94-16,27.63-27.6,66.31-34.61C303.83,766.24,319.38,755.28,303.33,740.67Z"/><path id="Path-108-2" data-name="Path-108" class="cls-3" d="M227.73,731.26l31-5.88a57.32,57.32,0,0,0,7.11-5.44c2.53-2.48,6.9-14.15,6.9-14.15l-14.19-7.34s-8.83,17.81-11.65,19.15-25,4.5-25,4.5l-7.29,1.37-5.3,5-1,1.84"/><polyline id="Path-108-3" data-name="Path-108" class="cls-3" points="208.34 730.32 206.96 732.88 219.75 733.17 224.29 731.91 227.73 731.26"/><path id="Path-92" class="cls-24" d="M256.5,702s-7.2,14.6-9.86,15.65-24.3,4.47-24.3,4.47c-4.17.5-7,1.21-8.39,2.12a28.51,28.51,0,0,0-5.85,6.34"/><path id="Path-93-2" data-name="Path-93" class="cls-24" d="M263.26,722.55a28.52,28.52,0,0,1-3.43,2.45c-2.21,1.4-14,2.64-30.64,5.94"/><path id="Path-105-2" data-name="Path-105" class="cls-5" d="M301.57,662.27a5.31,5.31,0,0,0,3.09.24,5.37,5.37,0,0,0,3.77-2.53q1.81.13,3.33,3.8c1.52,3.67.06,8,1.34,10.47a14.41,14.41,0,0,0,4.35,4.7q-10.69.45-13.9-5.82C301.41,669,300.76,665.33,301.57,662.27Z"/><path id="Path-102-2" data-name="Path-102" class="cls-5" d="M276.77,636.7q-1.2-6.21,1.43-9.47a19.33,19.33,0,0,1,18-6.07c8.2,1.78,13,10.29,14,18.61a31.85,31.85,0,0,1-3,17.36c-1.63,1.9-3.26,2.78-4.88,2.66-2.42-.19-7.24-1.82-8.74-3.72Q292.18,654.18,276.77,636.7Z"/><path id="Path-103-2" data-name="Path-103" class="cls-3" d="M277.89,636.59l-1.64,6.21,1.42,6.91,4,4.7,4.05,2,.71,7.15.31,7.12-8.92,2.18c-1.56,1.71,6.16,8.09,10.91,7.65,7.94-.72,19.78-4.63,19.78-4.63l-10.23-5-1.81-15.6,3.13-5.09,1.25-4.69,3-.64.45-4.9-2.41-2.23-4.12-.46-3-4.16.16-3.77-10.37,6.55Z"/><path id="Path-86-2" data-name="Path-86" class="cls-24" d="M277.84,636.6a16.35,16.35,0,0,0-.69,11.92q1.91,6,8.92,7.81l.61,14.33-2.68,1"/><path id="Path-87-2" data-name="Path-87" class="cls-24" d="M278,636.14q1.62.92,6-.6a45.91,45.91,0,0,0,10.89-6.17,7.34,7.34,0,0,0,.5,5,6.94,6.94,0,0,0,3.32,3.45c2.48-.9,4.16-.4,5.06,1.51,1.35,2.86.59,5.4-.37,5.91a4,4,0,0,1-2.57.49c.19,1.52-.36,3.1-1.6,5.21s-2.2,3.3-2.87,3.54l1.88,16,3.81,2.25"/><path id="Path-98-2" data-name="Path-98" class="cls-24" d="M284.79,655.93a7.73,7.73,0,0,0,3,.68,13.07,13.07,0,0,0,4.5-.64"/><path id="Path-104-2" data-name="Path-104" class="cls-24" d="M301.73,661a4.15,4.15,0,0,0,2.36.18,6.75,6.75,0,0,0,3.33-2.1"/><path id="Path-88-2" data-name="Path-88" class="cls-5" d="M282.4,670.76c.5,3.06,1.88,6.44,6,7.28,7.22,1.49,10.11-2,16.9-4.37,7.15-2.43,13.84,3.91,17.67,9.59s2.95,33.76-7.21,65.67l-58.83-6.25s12.4-31,11.62-31.37l-2.81-8.13-10.36-5.58c7.87-15.74,6.28-13.82,9.46-18.05S272.38,670.93,282.4,670.76Z"/><path id="Path-99-2" data-name="Path-99" class="cls-24" d="M275.21,686.86a27.19,27.19,0,0,0-3.59,14.85c.31,4.92,1.59,8.55,3.83,10.86l-.35,16.35"/><path class="cls-24" d="M255.22,744.72c-10.19-.12-26.89,2-38.64,9.31"/><path class="cls-24" d="M269.1,754.54s-7.41,7.91-13.73,5.07S244,767.07,244,767.07"/><path id="Path-108-4" data-name="Path-108" class="cls-3" d="M304.15,698.38l-8,11.68-27.09-.12-7.34-1.05-6.63,3-3.66,3.4,12,4.39,3.89-1.68,37.57,2.78a57.32,57.32,0,0,0,7.11-5.44c2.53-2.48,6.28-9.67,6.28-9.67Z"/><path id="Path-92-2" data-name="Path-92" class="cls-24" d="M301.55,701.63l-5.37,8.43-26.68,0c-4.11-.86-7-1.09-8.63-.69-2.46.6-10.33,5.25-9.07,6.26q1.26,1,11.68,4.11"/><path id="Path-93-3" data-name="Path-93" class="cls-24" d="M309.45,718a28.52,28.52,0,0,1-3.43,2.45q-3.31,2.14-38.65-2.4l-3.75,1.79"/><polygon class="cls-5" points="299.22 701.69 318.49 711.73 322.7 702.24 301.35 694.07 299.22 701.69"/><rect class="cls-23" x="108.2" y="738.47" width="244.92" height="14.23"/><rect class="cls-23" x="108.2" y="749.71" width="67.78" height="124.33"/><rect class="cls-5" x="150.52" y="750.83" width="36.7" height="122.46"/><path id="Path-94" class="cls-3" d="M243.41,781.78l-4.75,7.11L200,861.65q-4.42,7.59-7.12,7.2T160.41,850.4a.71.71,0,0,1,.31-1.31L190,848.3l30.82-74.36,8.95-6.31C234,765.16,247.9,776.44,243.41,781.78Z"/><path id="Path-94-2" data-name="Path-94" class="cls-24" d="M243.41,781.78l-4.75,7.11L200,861.65q-4.42,7.59-7.12,7.2T160.41,850.4a.71.71,0,0,1,.31-1.31L190,848.3l30.82-74.36,8.95-6.31"/><path id="Path-94-3" data-name="Path-94" class="cls-3" d="M234.59,773.15l-4.7,1.23-53.51,60.36q-6.15,6.28-8.66,5.24t-26.95-25.83a.71.71,0,0,1-.2-.62.73.73,0,0,1,.82-.58l31.13,5.38,46.66-59.41,12.26-5.16C236.27,754.11,241.32,771.33,234.59,773.15Z"/><path id="Path-94-4" data-name="Path-94" class="cls-24" d="M234.59,773.15l-4.7,1.23-53.51,60.36q-6.15,6.28-8.66,5.24t-26.95-25.83a.71.71,0,0,1-.2-.62.73.73,0,0,1,.82-.58l31.13,5.38,46.66-59.41,12.26-5.16"/><rect class="cls-23" x="204.44" y="731.55" width="80.14" height="4.87"/><line class="cls-26" x1="207.31" y1="737.65" x2="213.72" y2="737.65"/><line class="cls-26" x1="274.83" y1="737.65" x2="281.24" y2="737.65"/><rect class="cls-5" x="169.96" y="699.43" width="11.23" height="34.08"/><rect class="cls-26" x="151.24" y="732.76" width="48.31" height="4.87"/><path class="cls-23" d="M126.26,642.88h95a5.31,5.31,0,0,1,5.3,5.25l.63,59.43a5.3,5.3,0,0,1-5.3,5.36h-95a5.3,5.3,0,0,1-5.29-5.25L121,648.24A5.3,5.3,0,0,1,126.26,642.88Z"/><path class="cls-3" d="M165.32,676.63a8.36,8.36,0,0,0,7.94,8.53,8,8,0,0,0,8.53-7.58,8.36,8.36,0,0,0-7.94-8.53,8,8,0,0,0-8.53,7.58"/><path class="cls-24" d="M181.2,671a10.31,10.31,0,0,0-7.29-3.64,9.63,9.63,0,0,0-10.33,9.18"/><path class="cls-24" d="M165.31,682.44a10.29,10.29,0,0,0,7.88,4.43,9.71,9.71,0,0,0,10-7"/><path class="cls-24" d="M163.58,676.53a9.63,9.63,0,0,0,.48,3.4"/><path class="cls-23" d="M296.28,738.47a4.49,4.49,0,0,1,4.5-4.49H306a4.49,4.49,0,0,1,4.49,4.49H296.28Z"/><line class="cls-27" x1="303.4" y1="733.98" x2="303.4" y2="732.86"/><path class="cls-3" d="M287.24,751.77h4.92a0,0,0,0,1,0,0V872.21a2.46,2.46,0,0,1-2.46,2.46h0a2.46,2.46,0,0,1-2.46-2.46V751.77A0,0,0,0,1,287.24,751.77Z"/><path class="cls-3" d="M347.29,751.77h4.92a0,0,0,0,1,0,0V872.21a2.46,2.46,0,0,1-2.46,2.46h0a2.46,2.46,0,0,1-2.46-2.46V751.77A0,0,0,0,1,347.29,751.77Z"/><path class="cls-25" d="M292.16,752.71V871.56A2.47,2.47,0,0,1,289.7,874h0a2.47,2.47,0,0,1-2.46-2.48V752.71"/><path class="cls-14" d="M349.75,874h0a2.47,2.47,0,0,1-2.46-2.48V751.77h4.92V871.56A2.47,2.47,0,0,1,349.75,874Z"/><rect class="cls-5" x="187.22" y="750.83" width="165.9" height="1.87"/><line class="cls-14" x1="292.16" y1="804.05" x2="347.29" y2="827.18"/><line class="cls-14" x1="347.29" y1="804.05" x2="292.16" y2="827.18"/><path class="cls-23" d="M758,361.57l10.84,21.56c1,2,4.66.09,3.65-1.88L761.59,360C760.89,358.39,757.32,360,758,361.57Z"/><path class="cls-6" d="M824.88,360.53c1.19-1.53,22.63-3.47,23.86-2.24s1.58,6.07,1.08,7.17-23.56,3-24.22,2.4S823.68,362.06,824.88,360.53Z"/><path class="cls-3" d="M828,332.63l-2.83,4.75c-3.29,5.8-1.29,12.06,1.46,14.61a15.81,15.81,0,0,0,5.91,3.41l.28,10.82-8.15,2.86,6.34,7.34,17.35-1.71,1.19-8.09L844.07,365l-1.78-9.69a13.59,13.59,0,0,0,4.32-9.41c3.79.25,5.17-1.43,4.46-4.8l-2.39-10.55Z"/><g id="Group-4-3" data-name="Group-4"><path id="Path-20-4" data-name="Path-20" class="cls-25" d="M843.39,360.9c-.6-3.23-1.29-6.43-1.29-6.43s5-4.42,4.51-8.53c2.64,1.21,5.68-1.65,4.46-4.8"/><path id="Path-21-4" data-name="Path-21" class="cls-25" d="M825.29,337q-2.87,5.88-1.76,9.76,2.7,7.76,9,8.22l.21,8.28"/><path class="cls-5" d="M835.41,317.23q5.77,3,6.75,5.39,4.17-.18,5.35,2c.77,1,2.38,5.11,3,10a19.5,19.5,0,0,0-8.06,2.85c-.18-2.34-.63-4.17-1.56-4.72q-4,6.12-14.5,1.71C815.84,330.06,824.76,311.85,835.41,317.23Z"/></g><path class="cls-5" d="M850.49,336.33a22.74,22.74,0,0,0-7.72,2.4l.79,7.26c0,.39,1.46.25,1.42-.14l.2-4.51,5.65-1.62Z"/><path class="cls-6" d="M850.73,368.11s-.37-8-1.58-8.29-11.59,6.84-11.59,6.84l.54,10Z"/><path class="cls-6" d="M825,370.65s-1.15-7.9-.15-8.43,12.68,4.44,12.68,4.44l.54,10Z"/><path id="Path-32-3" data-name="Path-32" class="cls-3" d="M781.43,531.06c.38,3.77,1.12,11.67,1.23,12.76.17,1.65,4,17.81,2.54,18.37s-42.65,8.38-37.88,3.82,19.95-17.87,19.62-21.18l-1.43-15.28"/><path id="Path-32-4" data-name="Path-32" class="cls-25" d="M781.93,536.52l.73,7.3c.17,1.65,4,17.81,2.54,18.37s-42.65,8.38-37.88,3.82,19.95-17.87,19.62-21.18l-.31-8"/><path id="Path-33-3" data-name="Path-33" class="cls-3" d="M811,529.55a205.72,205.72,0,0,0,5.8,22.1,76.84,76.84,0,0,1,2.81,9.94L783.81,571.7a1.08,1.08,0,0,1-1.15-1.7Q801,545.82,800.3,543.38l-3-11.32"/><path id="Path-33-4" data-name="Path-33" class="cls-25" d="M812,532.06q3.33,15.65,4.81,19.59a76.84,76.84,0,0,1,2.81,9.94L783.81,571.7a1.08,1.08,0,0,1-1.15-1.7Q801,545.82,800.3,543.38l-1.19-5.92"/><path class="cls-5" d="M785.59,531.34l11.37-52,13.51-20.47-16.2,19.06-1.18,53.84C795,537.2,817,529.7,816,526.63L826.64,480c1.12-4.77,44.15-7.08,46.61-20.31a53,53,0,0,0-1.06-23.95L824.65,437l-49.16,18.78-14.71,70.35C760.91,531.92,785.53,534.56,785.59,531.34Z"/><path class="cls-3" d="M806.85,390.56l-9,19.92-25.24-17.27s.44-12.14-6.78-18c-15.43-12.47-4.4,17.2-.68,19.15s31.3,34.27,38.57,32.95c4.84-.87,13.89-26.9,16.17-32.1"/><path class="cls-3" d="M881.81,391.22s5.79,47.66,6.9,49.6,10.56,2.76,10.56,2.76c2.56,1.24,3.43,3,3,5.24l-17.93.1-15-52.59Z"/><path class="cls-23" d="M867.76,399.31l4.7,36.29q-17,7.78-27,8.69t-29.78-3.6s.87-36.48-.65-46.34l-13.7-5.24c.31-4.63,3.71-10,8-14.36a44.05,44.05,0,0,1,4.4-4c4.12-3.26,8.35-5.35,11.1-5.13,1.88,3.16,4.34,4.59,11.38,4.52q7.05-.07,11-7.83c5.17-1.35,17.71,3.38,24.5,6.92,10.52,5.48,12.75,19.86,15,22.35C869.47,396.79,867.76,399.31,867.76,399.31Z"/><path class="cls-25" d="M805.44,393.68l-7.58,16.8-25.24-17.27s.44-12.14-6.78-18c-15.43-12.47-4.4,17.2-.68,19.15s31.23,33.83,38.57,32.95c2.22-.26,4.63-4.08,6.91-9.29"/><path class="cls-28" d="M882.1,394.4s4.64,46.05,7.06,47a50.73,50.73,0,0,0,7.16,1.9,5.18,5.18,0,0,1,6.14,4c.55,2.06-1.49,2.13-2,2.16l-14.44-.33h-.47a4.89,4.89,0,0,1-1.28-.2L872.79,410l-2.31-11"/></svg>