<svg id="Layer_1" data-name="Layer 1" xmlns="http://www.w3.org/2000/svg" viewBox="0 0 1200 1200"><defs><style>.cls-1{fill:#e9e8e8;}.cls-2{fill:#fff;}.cls-3,.cls-6{fill:none;}.cls-3{stroke:#1d252e;stroke-linecap:round;stroke-linejoin:round;stroke-width:4px;}.cls-4{fill:#1d252e;}.cls-5{fill:#9dd5c0;}</style></defs><path id="Path-141" class="cls-1" d="M441.86,467.29c110.69-74.84,365-274.08,498.13-158.15s60.26,672.6-332,612.66c-147.36-22.52-370-34.95-401.22-104C154.88,702.94,372.75,514,441.86,467.29Z"/><polygon id="Path-36" class="cls-2" points="778.45 404.83 766.52 401.23 764.09 377.08 768.51 371.95 770.54 364.47 776.26 363.89 779.17 358.53 777.64 352.78 775.86 351.06 778.3 341.07 740.2 338.07 737.97 339.31 732.88 349.17 730.13 360.37 732.46 369.93 736.81 375.82 743.05 379.91 745.4 379.68 747.33 401.99 730.84 401.23 745.97 418.51 778.67 419.43 778.45 404.83"/><path id="Path-32" class="cls-2" d="M831.33,845l.51,12.89c.11,2.9,5,31.83,2.46,32.56s-75.75,7.12-66.89,0,37-27.73,36.72-33.57c1.66-2.68.18-13.68.18-13.68Z"/><path id="Path-20" class="cls-3" d="M773.75,403.09q-4.39-1.21-7.23-1.87-.53-10.86-2.43-24.14a20.15,20.15,0,0,0,4.42-5.13,29,29,0,0,0,2-7.44c6.18-.13,9-2.7,8.51-7.68s-3.52-6.93-9.06-5.82"/><path id="Path-21" class="cls-3" d="M735.44,344.83q-6.44,10.73-5,18.28,3.87,15.19,15.69,17.13L747.33,402l-8.31-.45"/><path id="Path-33" class="cls-2" d="M733.25,834.15l-.42,35.4.42,18.14-65.35-1.05L666,884.71l.72-1.51c17.2-12.53,33-24.83,41.74-35.9l1.25-15Z"/><path id="Path-31" class="cls-4" d="M815.91,561.51l9.9,142,13.71,139.94q-22.75,4-34.06,4t-16.28-4l-14-133.13-9.6-93.83a45.9,45.9,0,0,1-8.86-.62,51,51,0,0,1-8.74-2.82L742,707.31l-4,126q-17.76,2.55-26.61,2.4a83.21,83.21,0,0,1-20.06-3.15l2.94-132.23,16.15-132.55Z"/><path id="Path-22" class="cls-3" d="M776.6,348a12.71,12.71,0,0,0-7.81-.82"/><path id="Path-23" class="cls-4" d="M777.84,345.29a26,26,0,0,0-10.62-1.67c-.39-1.29-.87-2.74-1.44-4.34q-8.6,11-27.87.84c-19.28-10.13.71-43.31,20.08-31.28q10.47,6.69,11.94,11.36c5.3.24,8.58,1.82,9.83,4.77Q783.5,330.86,777.84,345.29Z"/><path id="Path-24" class="cls-5" d="M779.06,403.82q-11,13.77-25,11c-14-2.81-18.31-6.7-20.7-13.75-8.71-2.57-22.61,1.37-28.56,7.17-12.47,14.56-16.89,42.71-16.89,42.71s-18.22,48.4,18.37,53.47q.06,23.9-1.45,61.32,39.84,10.71,60.13,9.69t55.37-15.46l-12-84.62c1.73-.64,11.54-56.67,7.67-59.46S798.79,408,779.06,403.82Z"/><line id="Path-29" class="cls-3" x1="817.47" y1="547.53" x2="809.1" y2="483.7"/><path id="Path-32-2" data-name="Path-32" class="cls-3" d="M831.33,845l.51,12.89c.11,2.9,5,31.83,2.46,32.56s-75.75,7.12-66.89,0,37-27.73,36.72-33.57"/><path id="Path-33-2" data-name="Path-33" class="cls-3" d="M733.25,834.15q-1.2,28-.42,35.4a132.55,132.55,0,0,1,.42,18.14l-65.35-1.05a2,2,0,0,1-1.95-1.93,1.83,1.83,0,0,1,.72-1.51q41.85-31.44,41.74-35.9"/><rect class="cls-5" x="633.81" y="477.82" width="346.26" height="52.31" rx="15.15" transform="translate(-135.93 376.92) rotate(-24.31)"/><path class="cls-3" d="M812.65,472.7,652.2,545.18a15.16,15.16,0,0,0-7.57,20l9.07,20.06a15.13,15.13,0,0,0,20,7.57L790.83,540"/><path class="cls-3" d="M856,510.51l105.69-47.74a15.15,15.15,0,0,0,7.56-20l-9.06-20.06a15.13,15.13,0,0,0-20-7.57l-68.5,30.95"/><path class="cls-4" d="M816.05,508.68l-130.54,59a6.69,6.69,0,0,1-8.86-3.34l-1-2.14a6.7,6.7,0,0,1,3.35-8.86l136.41-61.63"/><line class="cls-4" x1="856.6" y1="473.09" x2="872.36" y2="465.97"/><path class="cls-4" d="M872.36,466l58.16-26.28a6.7,6.7,0,0,1,8.86,3.35l1,2.13A6.71,6.71,0,0,1,937,454L870.91,483.9"/><path id="Path-30" class="cls-2" d="M834,473.61l5.13,8.63-26.59,50.94c-2.88-2.72-27.54,17.29-13.26,29.19s27.76-19.78,30.09-23c1.35-1.87,36.76-54.36,34.42-70.82,0,0-5.16-24.21-14.26-23.38S835.6,458.7,834,473.61Z"/><path id="Path-30-2" data-name="Path-30" class="cls-3" d="M858.78,457.68l5.05,10.87c2.34,16.46-33.07,68.95-34.42,70.82-2.33,3.22-15.8,34.9-30.09,23s10.38-31.91,13.26-29.19l26.59-50.94"/><path id="Path-24-2" data-name="Path-24" class="cls-5" d="M791.29,429.42c3.28,12.47,32.42,43.56,42.32,48.61,21-8.82,23.34-27,21.77-34.28s-22.64-23.6-43-30.12C804.48,411.34,787.7,420,791.29,429.42Z"/><path class="cls-2" d="M708.64,500.18c9-.64,33.58-75.71,37.45-87,0,0,23.08-42.77,1.61-37.67-16.62,4-14.64,12.26-13.85,16.42.87,4.56-3.54,14.49-3.54,14.49S709,448,709.29,451.89C694.45,476,696,491.19,708.64,500.18Z"/><path class="cls-3" d="M708.64,500.18c9-.64,33.58-75.71,37.45-87,0,0,23.08-42.77,1.61-37.67-16.62,4-14.64,12.26-13.85,16.42.87,4.56-3.54,14.49-3.54,14.49S709,448,709.29,451.89"/><rect class="cls-5" x="229.41" y="362.07" width="346.26" height="531.68"/><rect class="cls-2" x="229.41" y="525.15" width="346.26" height="368.6"/><rect class="cls-4" x="229.41" y="525.15" width="346.26" height="9.73"/><polyline class="cls-3" points="229.41 549.75 229.41 893.75 575.67 893.75 575.67 545.06"/><rect class="cls-4" x="258.96" y="394.17" width="284.45" height="15.74" rx="7.87"/><rect class="cls-4" x="258.96" y="432.06" width="284.45" height="15.74" rx="7.87"/><rect class="cls-3" x="258.96" y="469.96" width="284.45" height="15.74" rx="7.87"/><rect class="cls-5" x="301.94" y="562.19" width="242.09" height="27.92"/><circle class="cls-5" cx="269.8" cy="575.11" r="11.79"/><line class="cls-3" x1="540.9" y1="590.11" x2="301.94" y2="590.11"/><rect class="cls-5" x="301.94" y="618.85" width="242.09" height="54.61"/><circle class="cls-5" cx="269.8" cy="631.77" r="11.79"/><line class="cls-3" x1="540.9" y1="672.44" x2="301.94" y2="672.44"/><polyline class="cls-5" points="468.04 711.13 301.94 711.13 301.94 739.05 468.04 739.05"/><circle class="cls-5" cx="269.8" cy="724.05" r="11.79"/><line class="cls-3" x1="468.04" y1="739.05" x2="301.94" y2="739.05"/><polyline class="cls-5" points="466.99 768.91 301.94 768.91 301.94 833.72 466.99 833.72"/><circle class="cls-5" cx="269.8" cy="781.84" r="11.79"/><line class="cls-3" x1="467.3" y1="835.36" x2="301.94" y2="835.36"/><circle class="cls-5" cx="538.22" cy="866.92" r="13.27"/><polygon class="cls-4" points="537.24 871.89 537.24 868.45 533.45 868.45 533.45 865.39 537.24 865.39 537.24 861.96 544.26 866.92 537.24 871.89"/><rect class="cls-6" width="1200" height="1200"/></svg>