<svg id="Layer_1" data-name="Layer 1" xmlns="http://www.w3.org/2000/svg" viewBox="0 0 1200 1200"><defs><style>.cls-1{fill:#e9e8e8;}.cls-2{fill:#1d252e;}.cls-3{fill:#fff;}.cls-4,.cls-6{fill:none;stroke:#1d252e;stroke-linecap:round;stroke-width:4px;}.cls-4{stroke-linejoin:round;}.cls-5{fill:#9dd5c0;}.cls-7{fill:#1d252f;}.cls-8{fill:#9ed4c0;}</style></defs><path id="Oval" class="cls-1" d="M600,960.93c189.83,0,343.72-241.76,343.72-412.57S789.83,239.07,600,239.07,256.28,377.54,256.28,548.36,410.17,960.93,600,960.93Z"/><path id="Path-105" class="cls-2" d="M318.36,595.9q-3.56,1-11.2-2.3t-10.83-12.85q-6.58-1.37-15.74,10.12c-9.14,11.48-8.41,28.43-15.47,35.83q-7.06,7.41-20.26,12.25,37.58,12.56,55.36-6.44T318.36,595.9Z"/><path class="cls-3" d="M449.92,892.1h39.5l-8.06-66-.33-2.67,0-.38-.06-.48-.46-3.75-1-11.09-.22-2.49-.78-9-1.05-12-3.81.92-.7.17-29.21,7.07-26.41,6.39a41,41,0,0,0,.72,5s0,0,0,.07c.1.53.22,1.08.34,1.65,1.6,7.55,4.83,18.93,8.95,32.25l0,.08c1.68,5.42,3.5,11.16,5.43,17.09,3.72,11.46,7.8,23.64,11.89,35.62.17.51.34,1,.52,1.51h4.71Z"/><polyline class="cls-4" points="489.46 892.1 481.73 826.13 481.4 823.35 481.36 822.98 481.24 821.95 481.24 821.94 479.56 807.64 479.28 805.28 478.94 802.35"/><path class="cls-4" d="M419.93,813.84c0,12,1.41,17.4,5.18,24.56l0,.07c.89,1.68,1.92,3.48,3.09,5.48a102.56,102.56,0,0,1,4.57,11c3.35,8.89,8,22,12.91,36.24.11.3.21.59.31.89"/><path id="Path-88" class="cls-5" d="M412.29,806.49l73.76-11.36c-5.51-76.1-4.91-93.21-5.06-106.3s-10.5-50.2-39.35-52.32-39.9,39.4-41.5,52S412.29,806.49,412.29,806.49Z"/><path class="cls-2" d="M447.06,892.1H329.82q84-19.7,114.87-1.51c.35.2.69.4,1,.62S446.62,891.79,447.06,892.1Z"/><path id="Path-102" class="cls-2" d="M429.42,526.69q10.81-20.76,4.94-35.1c-5.87-14.33-23.25-34.93-54.21-37.31S320,473.85,307.4,502.19C299,521.08,301.76,546.71,305,571A18,18,0,0,0,317.77,584c10.11,3.08,19.94-4.29,27.25-9.43C349.89,571.17,380.74,557.14,429.42,526.69Z"/><path id="Path-103" class="cls-3" d="M425.55,525.86,429,549.37l-8.09,24.78-16.65,15.64-15.68,5.61,1.61,35.26,35.63,3.42-14.11,30.08c-21.17,11.9-46.16,14.4-73.08,12.13l-42.07-37.91,51.66-7.75L349.5,587l-9.4-20-2.63-17.75-10.85-3.61.35-18.2,9.82-7.18,15.32,0,12.83-14.08,1-13.9,35.41,28.37Z"/><path id="Path-86" class="cls-4" d="M425.55,525.86a60.59,60.59,0,0,1-2.4,44.1q-9.51,21.35-36,25l3.08,35.66,20.42.69"/><path id="Path-87" class="cls-4" d="M425.1,524.12q-6.32,2.67-21.72-4.67T365.9,492.27A27.11,27.11,0,0,1,362,510.54a25.74,25.74,0,0,1-13.64,11.32q-13.08-6.52-19.21,3.44c-6.13,10-4.39,19.61-1.09,21.89q3.3,2.28,9.44,2-2,8.24,3.54,20.65t9.08,14.18l0,46.91-29.84,3.42"/><path id="Path-98" class="cls-4" d="M392,594.06q-4.1,1.58-11.3,1.24a47.77,47.77,0,0,1-16.28-4.2"/><path id="Path-104" class="cls-4" d="M320.45,588.77c-2.43.58-5.33.25-8.72-1s-6.92-4.58-10.6-10"/><path class="cls-5" d="M449.92,892.1c-1.78-14.31-4.38-28.59-6-42.17-.3-2.57-.48-8.48-.55-16.3v-.18c-.08-8.84,0-20.11.15-31.78h0a1.21,1.21,0,0,0,0-.19c.05-3,.11-6,.17-9,.58-27,1.83-53.41,3.65-54.5,0,0,.58-2.17,1.52-5.82,4.45-17.18,17-67.29,15.6-79-.76-6.14-6.61-11-14-14.76h0c-9.68-4.85-22-7.64-29.15-8.47-1.89-.22-3.7,1-5.55,3.2-8.23,9.73-17.28,38.18-37.47,39.78-28.11,2.06-48.35-31.23-70.44-36.21h0a24,24,0,0,0-6.65-.57A60.15,60.15,0,0,0,292,639h0c-1.88.76-3.73,1.6-5.55,2.54h-.06a92.86,92.86,0,0,0-19.87,13.85,0,0,0,0,0,0,0c-12.7,11.46-21.22,24.88-21.22,32.32,0,34.58,27.53,111.41,27.62,114.63q.22,8.08.46,15.54c0,.84.06,1.67.08,2.49.07,2,.13,4,.19,6,1,30.37,1.93,52.18,2.57,65.73H449.92Z"/><path class="cls-5" d="M547.29,760.65l-32.11,62.28a4.27,4.27,0,0,1-4.29,2.17l-31.65,1.12-1.41-.16-1.93-.23a3.76,3.76,0,0,1-2.51-1.3h0a2.86,2.86,0,0,1-.37-3L505.8,752a4.79,4.79,0,0,1,4.84-2.53l4,.43,29.89,7C546.83,757.06,548.12,758.87,547.29,760.65Z"/><path class="cls-6" d="M547.29,760.65c.83-1.78-.46-3.59-2.73-3.8l-29.89-7-4-.43A4.79,4.79,0,0,0,505.8,752L473,821.53a2.86,2.86,0,0,0,.37,3h0a3.76,3.76,0,0,0,2.51,1.3l1.93.23,1.41.16,31.65-1.12a4.27,4.27,0,0,0,4.29-2.17Z"/><line class="cls-6" x1="517.52" y1="758.13" x2="515.76" y2="762.23"/><path class="cls-2" d="M514.81,750.12l-35.57,76.1-.12.28-1.29-.44-4.44-1.53h0a2.86,2.86,0,0,1-.37-3L505.8,752a4.79,4.79,0,0,1,4.84-2.53l4,.43Z"/><path id="Path-93" class="cls-3" d="M272.55,818.37c9.25,21.46,28.67,45,36.93,47.18C319.81,868.26,481.21,823,481.21,823s23.14-8,27.07-11.8,13.69-32.52,15.3-36.57c2.43-6.06-29.73-.67-39.65,2.12-6.61,1.86-12.94,12.08-25.74,23.33l-109,10.1L334,786.91Z"/><path id="Path-93-2" data-name="Path-93" class="cls-4" d="M280.37,834.78c9.12,21.52,20.56,28.06,28.8,30.27,10.31,2.77,172-41.62,172-41.62s21.38-7.25,25.34-11,17.38-28.6,16.1-39.52c-.76-6.5-28.52,1.57-38.45,4.3-6.62,1.82-13,12-25.86,23.15L349.22,810l-8.34-11.68"/><path id="Path-88-2" data-name="Path-88" class="cls-5" d="M272.75,826.2c3.4,3.31,65.67-35.45,65.67-35.45-8.37-39.8-16.59-74.52-28.26-91-7.56-10.69-10.24-52.92-38.36-46.15S241,704.91,239.12,723.34C237.67,737.33,253.32,801.19,272.75,826.2Z"/><path class="cls-4" d="M445.86,707.14c-1.36,8.17.33,12.64,5.61,36.26s-7,35.87-7,35.87"/><path class="cls-4" d="M309.15,725.48c3.08,13.85,23.14,54.43,23.14,54.43"/><path class="cls-7" d="M931.49,464.19V361.33a53.51,53.51,0,0,0-53.44-53.44H639.31a53.51,53.51,0,0,0-53.44,53.44v41.78h-2v36h2v8.39h-2v56.71h2v2.12h-2V563h2v329.1H931.49V546.88h2V464.19Z"/><path class="cls-8" d="M909.63,357.57V892.11H607.72V357.57c0-13.89,11.56-25.2,25.77-25.2h43.32v5.13a17.08,17.08,0,0,0,17.29,16.88H823.26a17.09,17.09,0,0,0,17.27-16.88v-5.13h43.35C898.08,332.37,909.63,343.68,909.63,357.57Z"/><circle class="cls-3" cx="800.99" cy="336.39" r="4.03"/><rect class="cls-3" x="716.68" y="332.37" width="72.47" height="8.06" rx="4.03"/><rect class="cls-3" x="626.73" y="446.64" width="263.91" height="385.23" rx="28.1"/><rect class="cls-4" x="646.22" y="565.61" width="226.81" height="30.28"/><path class="cls-2" d="M646.77,557.16a.81.81,0,0,1-.59-.24.79.79,0,0,1-.24-.59V545.5a.78.78,0,0,1,.24-.6.8.8,0,0,1,.59-.23H654a.84.84,0,0,1,.6.21.77.77,0,0,1,.22.57.69.69,0,0,1-.22.54.84.84,0,0,1-.6.21h-6.4v3.89h4.6a.8.8,0,0,1,.59.22.71.71,0,0,1,.22.55.72.72,0,0,1-.22.55.84.84,0,0,1-.59.22h-4.6v4H654a.89.89,0,0,1,.6.2.71.71,0,0,1,.22.55.77.77,0,0,1-.22.57.84.84,0,0,1-.6.21Z"/><path class="cls-2" d="M658,557.16a.81.81,0,0,1-.59-.24.79.79,0,0,1-.24-.59V545.5a.78.78,0,0,1,.24-.6.8.8,0,0,1,.59-.23.82.82,0,0,1,.74.44l5,10h-.52l4.88-10a.82.82,0,0,1,.74-.44.8.8,0,0,1,.83.83v10.83a.76.76,0,0,1-.25.59.83.83,0,0,1-1.17,0,.79.79,0,0,1-.24-.59V547.8l.32-.08-4.19,8.55a.85.85,0,0,1-.72.41.79.79,0,0,1-.77-.49l-4.15-8.31.32-.08v8.53a.82.82,0,0,1-.83.83Z"/><path class="cls-2" d="M672.36,557.16a.78.78,0,0,1-.69-.38.83.83,0,0,1,0-.82l4.5-10.73a.8.8,0,0,1,.78-.56.76.76,0,0,1,.78.56L682.2,556a.88.88,0,0,1-.06.81.77.77,0,0,1-.7.36A.81.81,0,0,1,681,557a.72.72,0,0,1-.31-.38l-4-9.86h.45l-4,9.86a.76.76,0,0,1-.32.38A.83.83,0,0,1,672.36,557.16Zm.84-2.75.64-1.38h6.28l.64,1.38Z"/><path class="cls-2" d="M684.93,557.16a.81.81,0,0,1-.59-.24.79.79,0,0,1-.24-.59V545.5a.78.78,0,0,1,.24-.6.8.8,0,0,1,.59-.23.79.79,0,0,1,.83.83v10.83a.8.8,0,0,1-.83.83Z"/><path class="cls-2" d="M689.78,557.16a.75.75,0,0,1-.58-.24.79.79,0,0,1-.24-.59V545.5a.79.79,0,0,1,.24-.59.83.83,0,0,1,1.17,0,.79.79,0,0,1,.24.59v10h5.79a.82.82,0,0,1,.84.83.79.79,0,0,1-.24.59.81.81,0,0,1-.6.24Z"/><path class="cls-2" d="M703.43,557.16a.78.78,0,0,1-.69-.38.83.83,0,0,1,0-.82l4.5-10.73a.8.8,0,0,1,.78-.56.77.77,0,0,1,.79.56L713.27,556a.85.85,0,0,1-.06.81.76.76,0,0,1-.69.36.84.84,0,0,1-.46-.13.77.77,0,0,1-.31-.38l-4-9.86h.45l-4,9.86a.86.86,0,0,1-.77.51Zm.85-2.75.64-1.38h6.27l.64,1.38Z"/><path class="cls-2" d="M716,557.16a.81.81,0,0,1-.59-.24.79.79,0,0,1-.24-.59V545.5a.78.78,0,0,1,.24-.6.8.8,0,0,1,.59-.23h2.9a6.66,6.66,0,0,1,2.5.45,5.74,5.74,0,0,1,2,1.3,5.64,5.64,0,0,1,1.28,2,6.81,6.81,0,0,1,.45,2.52,6.88,6.88,0,0,1-.45,2.52,5.59,5.59,0,0,1-1.28,2,5.74,5.74,0,0,1-2,1.3,6.66,6.66,0,0,1-2.5.45Zm.84-1.47h2.06a4.41,4.41,0,0,0,4-2.31,5.49,5.49,0,0,0,0-5,4.36,4.36,0,0,0-1.62-1.68,4.56,4.56,0,0,0-2.38-.61h-2.06Z"/><path class="cls-2" d="M728.53,557.16a.81.81,0,0,1-.59-.24.79.79,0,0,1-.24-.59V545.5a.78.78,0,0,1,.24-.6.8.8,0,0,1,.59-.23h2.9a6.7,6.7,0,0,1,2.5.45,5.84,5.84,0,0,1,2,1.3,5.78,5.78,0,0,1,1.28,2,6.81,6.81,0,0,1,.45,2.52,6.88,6.88,0,0,1-.45,2.52,5.73,5.73,0,0,1-1.28,2,5.84,5.84,0,0,1-2,1.3,6.7,6.7,0,0,1-2.5.45Zm.83-1.47h2.07a4.44,4.44,0,0,0,4-2.31,5.49,5.49,0,0,0,0-5,4.32,4.32,0,0,0-1.63-1.68,4.52,4.52,0,0,0-2.37-.61h-2.07Z"/><path class="cls-2" d="M741.06,557.16a.82.82,0,0,1-.83-.83V545.5a.8.8,0,0,1,.83-.83h2.88a4.35,4.35,0,0,1,2.13.5,3.78,3.78,0,0,1,1.45,1.38,4,4,0,0,1,.52,2.05,3.7,3.7,0,0,1-.52,1.94,3.66,3.66,0,0,1-1.45,1.33,4.58,4.58,0,0,1-2.13.48h-2.05v4a.82.82,0,0,1-.23.59A.81.81,0,0,1,741.06,557.16Zm.83-6.35h2.05a2.86,2.86,0,0,0,1.3-.28,2.29,2.29,0,0,0,.88-.78,2.14,2.14,0,0,0,.32-1.15,2.47,2.47,0,0,0-.32-1.25,2.29,2.29,0,0,0-.88-.84,2.63,2.63,0,0,0-1.3-.31h-2.05Zm5.81,6.35a.91.91,0,0,1-.41-.09.84.84,0,0,1-.31-.31l-2.88-4.64,1.62-.46,2.62,4.22a.84.84,0,0,1,.08.87A.73.73,0,0,1,747.7,557.16Z"/><path class="cls-2" d="M751.17,557.16a.81.81,0,0,1-.59-.24.79.79,0,0,1-.24-.59V545.5a.78.78,0,0,1,.24-.6.8.8,0,0,1,.59-.23h7.23a.8.8,0,0,1,.59.21.78.78,0,0,1,.23.57.69.69,0,0,1-.23.54.8.8,0,0,1-.59.21H752v3.89h4.59a.81.81,0,0,1,.6.22.71.71,0,0,1,.22.55.72.72,0,0,1-.22.55.85.85,0,0,1-.6.22H752v4h6.4a.84.84,0,0,1,.59.2.72.72,0,0,1,.23.55.78.78,0,0,1-.23.57.8.8,0,0,1-.59.21Z"/><path class="cls-2" d="M765.51,557.32a5.7,5.7,0,0,1-2-.32,5.08,5.08,0,0,1-1.62-.89,3.55,3.55,0,0,1-1-1.33.64.64,0,0,1,0-.63.91.91,0,0,1,1.14-.28,1.1,1.1,0,0,1,.42.46,2.15,2.15,0,0,0,.63.74,3.77,3.77,0,0,0,1.06.54,4.15,4.15,0,0,0,1.32.21,4,4,0,0,0,1.41-.24,2.52,2.52,0,0,0,1.05-.7,1.63,1.63,0,0,0,.4-1.13,2.13,2.13,0,0,0-.66-1.52,3.62,3.62,0,0,0-2.19-.83,5.51,5.51,0,0,1-3.12-1.17,3.06,3.06,0,0,1-1.13-2.41,2.72,2.72,0,0,1,.59-1.79,3.6,3.6,0,0,1,1.61-1.12,6.23,6.23,0,0,1,2.26-.39,5,5,0,0,1,1.71.27,4.38,4.38,0,0,1,1.27.76,5.19,5.19,0,0,1,.94,1.13,1,1,0,0,1,.18.67.63.63,0,0,1-.31.48.71.71,0,0,1-.65.08.88.88,0,0,1-.53-.41,2.89,2.89,0,0,0-.63-.79,2.7,2.7,0,0,0-.86-.5,3.43,3.43,0,0,0-1.17-.18,3.77,3.77,0,0,0-2,.44,1.51,1.51,0,0,0-.8,1.4,1.82,1.82,0,0,0,.25.92,2,2,0,0,0,.91.76A5.91,5.91,0,0,0,766,550a5.09,5.09,0,0,1,3,1.16,3.3,3.3,0,0,1,1.06,2.56,3.21,3.21,0,0,1-.37,1.58,3.52,3.52,0,0,1-1,1.13,4.56,4.56,0,0,1-1.44.68A6.22,6.22,0,0,1,765.51,557.32Z"/><path class="cls-2" d="M776.51,557.32a5.78,5.78,0,0,1-2-.32,5,5,0,0,1-1.61-.89,3.55,3.55,0,0,1-1-1.33.62.62,0,0,1,0-.63.78.78,0,0,1,.56-.36.76.76,0,0,1,.57.08,1.06,1.06,0,0,1,.43.46,2,2,0,0,0,.63.74,3.77,3.77,0,0,0,1.06.54,4.13,4.13,0,0,0,1.31.21,4,4,0,0,0,1.42-.24,2.52,2.52,0,0,0,1.05-.7,1.63,1.63,0,0,0,.4-1.13,2.1,2.1,0,0,0-.67-1.52,3.58,3.58,0,0,0-2.18-.83,5.51,5.51,0,0,1-3.12-1.17,3,3,0,0,1-1.14-2.41,2.73,2.73,0,0,1,.6-1.79,3.62,3.62,0,0,1,1.6-1.12,6.32,6.32,0,0,1,2.27-.39,4.85,4.85,0,0,1,1.7.27,4.13,4.13,0,0,1,1.27.76,5,5,0,0,1,.95,1.13,1,1,0,0,1,.18.67.63.63,0,0,1-.31.48.71.71,0,0,1-.65.08.85.85,0,0,1-.53-.41,2.89,2.89,0,0,0-.63-.79,2.7,2.7,0,0,0-.86-.5,3.43,3.43,0,0,0-1.17-.18,3.77,3.77,0,0,0-2,.44,1.49,1.49,0,0,0-.8,1.4,1.91,1.91,0,0,0,.24.92,2.06,2.06,0,0,0,.92.76A5.91,5.91,0,0,0,777,550a5.09,5.09,0,0,1,3,1.16,3.3,3.3,0,0,1,1.06,2.56,3.11,3.11,0,0,1-.38,1.58,3.49,3.49,0,0,1-1,1.13,4.56,4.56,0,0,1-1.44.68A6.25,6.25,0,0,1,776.51,557.32Z"/><rect class="cls-4" x="644.34" y="710.01" width="16.33" height="16.2"/><path class="cls-2" d="M672.87,724.15a.79.79,0,0,1-.59-.24.81.81,0,0,1-.24-.59V712.49a.78.78,0,0,1,.24-.6.79.79,0,0,1,.59-.24h2.88a4.36,4.36,0,0,1,2.13.51,3.75,3.75,0,0,1,1.44,1.38,3.93,3.93,0,0,1,.52,2.05,3.54,3.54,0,0,1-2,3.26,4.58,4.58,0,0,1-2.13.48h-2v4a.84.84,0,0,1-.23.59A.81.81,0,0,1,672.87,724.15Zm.83-6.35h2a2.79,2.79,0,0,0,1.29-.28,2.11,2.11,0,0,0,.88-.79,2,2,0,0,0,.32-1.14,2.38,2.38,0,0,0-.32-1.25,2.16,2.16,0,0,0-.88-.84,2.57,2.57,0,0,0-1.29-.31h-2Zm5.81,6.35a.8.8,0,0,1-.41-.1.74.74,0,0,1-.31-.3l-2.88-4.64,1.61-.46,2.63,4.22a.84.84,0,0,1,.08.87A.75.75,0,0,1,679.51,724.15Z"/><path class="cls-2" d="M683,724.15a.79.79,0,0,1-.59-.24.81.81,0,0,1-.24-.59V712.49a.78.78,0,0,1,.24-.6.79.79,0,0,1,.59-.24h7.23a.82.82,0,0,1,.59.22.75.75,0,0,1,.23.57.71.71,0,0,1-.23.54.82.82,0,0,1-.59.21h-6.4v3.89h4.59a.84.84,0,0,1,.6.21.81.81,0,0,1,0,1.11.84.84,0,0,1-.6.21h-4.59v4h6.4a.82.82,0,0,1,.59.21.72.72,0,0,1,.23.55.74.74,0,0,1-.23.56.78.78,0,0,1-.59.22Z"/><path class="cls-2" d="M694.18,724.15a.79.79,0,0,1-.59-.24.81.81,0,0,1-.24-.59V712.49a.78.78,0,0,1,.24-.6.79.79,0,0,1,.59-.24.82.82,0,0,1,.74.45l5,10h-.51l4.88-10a.84.84,0,0,1,1.33-.21.78.78,0,0,1,.24.6v10.83a.78.78,0,0,1-.25.59.8.8,0,0,1-.58.24.79.79,0,0,1-.59-.24.77.77,0,0,1-.24-.59v-8.53l.32-.08-4.2,8.54a.82.82,0,0,1-.72.42.8.8,0,0,1-.77-.5l-4.14-8.3.32-.08v8.53a.82.82,0,0,1-.83.83Z"/><path class="cls-2" d="M709.89,724.15a.82.82,0,0,1-.83-.83V712.49a.78.78,0,0,1,.24-.6.81.81,0,0,1,.59-.24h7.23a.81.81,0,0,1,.59.22.75.75,0,0,1,.23.57.71.71,0,0,1-.23.54.8.8,0,0,1-.59.21h-6.4v3.89h4.59a.84.84,0,0,1,.6.21.81.81,0,0,1,0,1.11.84.84,0,0,1-.6.21h-4.59v4h6.4a.8.8,0,0,1,.59.21.72.72,0,0,1,.23.55.74.74,0,0,1-.23.56.77.77,0,0,1-.59.22Z"/><path class="cls-2" d="M721.09,724.15a.82.82,0,0,1-.83-.83V712.49a.78.78,0,0,1,.24-.6.84.84,0,0,1,1.33.21l5,10h-.51l4.88-10a.84.84,0,0,1,1.33-.21.78.78,0,0,1,.24.6v10.83a.78.78,0,0,1-.25.59.8.8,0,0,1-.58.24.79.79,0,0,1-.59-.24.81.81,0,0,1-.24-.59v-8.53l.32-.08-4.19,8.54a.85.85,0,0,1-.72.42.79.79,0,0,1-.77-.5l-4.15-8.3.32-.08v8.53a.81.81,0,0,1-.24.59A.79.79,0,0,1,721.09,724.15Z"/><path class="cls-2" d="M736.8,724.15a.82.82,0,0,1-.83-.83V712.49a.78.78,0,0,1,.24-.6.81.81,0,0,1,.59-.24h3.83a4.17,4.17,0,0,1,1.91.43,3.18,3.18,0,0,1,1.77,2.9,2.43,2.43,0,0,1-.43,1.42,3,3,0,0,1-1.16,1,3.13,3.13,0,0,1,1.7,1,2.9,2.9,0,0,1,.64,2,3.56,3.56,0,0,1-2,3.28,4.46,4.46,0,0,1-2.13.49Zm.84-7.36h3a2.38,2.38,0,0,0,1.49-.45,1.61,1.61,0,0,0,.59-1.36,1.59,1.59,0,0,0-.59-1.35,2.44,2.44,0,0,0-1.49-.44h-3Zm0,5.82H741a3.11,3.11,0,0,0,1.3-.25,2,2,0,0,0,.88-.75,2.25,2.25,0,0,0,.32-1.23,1.83,1.83,0,0,0-1.2-1.82,3.28,3.28,0,0,0-1.3-.23h-3.32Z"/><path class="cls-2" d="M748.37,724.15a.82.82,0,0,1-.83-.83V712.49a.78.78,0,0,1,.24-.6.81.81,0,0,1,.59-.24h7.23a.81.81,0,0,1,.59.22.75.75,0,0,1,.23.57.71.71,0,0,1-.23.54.8.8,0,0,1-.59.21h-6.4v3.89h4.59a.84.84,0,0,1,.6.21.81.81,0,0,1,0,1.11.84.84,0,0,1-.6.21H749.2v4h6.4a.8.8,0,0,1,.59.21.72.72,0,0,1,.23.55.74.74,0,0,1-.23.56.77.77,0,0,1-.59.22Z"/><path class="cls-2" d="M759.57,724.15a.82.82,0,0,1-.83-.83V712.49a.78.78,0,0,1,.24-.6.81.81,0,0,1,.59-.24h2.88a4.36,4.36,0,0,1,2.13.51,3.78,3.78,0,0,1,1.45,1.38,4,4,0,0,1,.52,2.05,3.7,3.7,0,0,1-.52,1.94,3.63,3.63,0,0,1-1.45,1.32,4.58,4.58,0,0,1-2.13.48H760.4v4a.8.8,0,0,1-.23.59A.78.78,0,0,1,759.57,724.15Zm.83-6.35h2.05a2.86,2.86,0,0,0,1.3-.28,2.24,2.24,0,0,0,.88-.79,2.08,2.08,0,0,0,.32-1.14,2.47,2.47,0,0,0-.32-1.25,2.29,2.29,0,0,0-.88-.84,2.63,2.63,0,0,0-1.3-.31H760.4Zm5.81,6.35a.83.83,0,0,1-.41-.1.8.8,0,0,1-.31-.3l-2.88-4.64,1.62-.46,2.62,4.22a.84.84,0,0,1,.08.87A.75.75,0,0,1,766.21,724.15Z"/><path class="cls-2" d="M774.37,724.15a.82.82,0,0,1-.83-.83V712.49a.78.78,0,0,1,.24-.6.84.84,0,0,1,1.33.21l5,10h-.51l4.88-10a.84.84,0,0,1,1.33-.21.78.78,0,0,1,.24.6v10.83a.78.78,0,0,1-.25.59.8.8,0,0,1-.58.24.79.79,0,0,1-.59-.24.81.81,0,0,1-.24-.59v-8.53l.32-.08-4.2,8.54a.82.82,0,0,1-.72.42.78.78,0,0,1-.76-.5l-4.15-8.3.32-.08v8.53a.82.82,0,0,1-.83.83Z"/><path class="cls-2" d="M790.08,724.15a.82.82,0,0,1-.83-.83V712.49a.78.78,0,0,1,.24-.6.81.81,0,0,1,.59-.24h7.23a.85.85,0,0,1,.6.22.74.74,0,0,1,.22.57.7.7,0,0,1-.22.54.84.84,0,0,1-.6.21h-6.4v3.89h4.6a.84.84,0,0,1,.59.21.81.81,0,0,1,0,1.11.84.84,0,0,1-.59.21h-4.6v4h6.4a.84.84,0,0,1,.6.21.71.71,0,0,1,.22.55.73.73,0,0,1-.22.56.81.81,0,0,1-.6.22Z"/><rect class="cls-4" x="646.22" y="644.21" width="226.81" height="30.28"/><path class="cls-2" d="M646.77,635.06a.82.82,0,0,1-.83-.84V623.39a.81.81,0,0,1,.24-.6.84.84,0,0,1,.59-.23H650a4.26,4.26,0,0,1,2.13.53,3.77,3.77,0,0,1,1.45,1.46,4.33,4.33,0,0,1,.52,2.15,4.07,4.07,0,0,1-.52,2.08,3.69,3.69,0,0,1-1.45,1.43,4.36,4.36,0,0,1-2.13.51H647.6v3.5a.81.81,0,0,1-.23.6A.78.78,0,0,1,646.77,635.06Zm.83-5.88H650a2.51,2.51,0,0,0,1.3-.32,2.26,2.26,0,0,0,.88-.88,2.56,2.56,0,0,0,.32-1.28,2.81,2.81,0,0,0-.32-1.35,2.43,2.43,0,0,0-.88-.92,2.51,2.51,0,0,0-1.3-.33H647.6Z"/><path class="cls-2" d="M654.93,635.06a.76.76,0,0,1-.69-.39.81.81,0,0,1,0-.81l4.49-10.74a.82.82,0,0,1,.79-.56.78.78,0,0,1,.78.56l4.51,10.77a.85.85,0,0,1,0,.81.78.78,0,0,1-.7.36.88.88,0,0,1-.46-.14.83.83,0,0,1-.31-.38l-4-9.85h.45l-4,9.85a.79.79,0,0,1-.33.39A.9.9,0,0,1,654.93,635.06Zm.85-2.76.64-1.37h6.27l.64,1.37Z"/><path class="cls-2" d="M670.64,635.22a6,6,0,0,1-1.95-.32,5.13,5.13,0,0,1-1.61-.9,3.47,3.47,0,0,1-1-1.33.6.6,0,0,1,0-.62.79.79,0,0,1,.56-.37.82.82,0,0,1,.57.09,1,1,0,0,1,.43.45,1.88,1.88,0,0,0,.63.74,3.52,3.52,0,0,0,1.06.54,4.13,4.13,0,0,0,1.31.21,4,4,0,0,0,1.42-.24,2.6,2.6,0,0,0,1.05-.69,1.69,1.69,0,0,0,.4-1.13,2.08,2.08,0,0,0-.67-1.52,3.47,3.47,0,0,0-2.18-.83,5.51,5.51,0,0,1-3.12-1.17,3.06,3.06,0,0,1-1.14-2.42,2.75,2.75,0,0,1,.6-1.79,3.7,3.7,0,0,1,1.6-1.12,6.32,6.32,0,0,1,2.27-.38,4.85,4.85,0,0,1,1.7.27,3.92,3.92,0,0,1,1.27.75,4.81,4.81,0,0,1,.95,1.14,1,1,0,0,1,.18.66.67.67,0,0,1-.31.49.76.76,0,0,1-.66.08.91.91,0,0,1-.52-.42,2.7,2.7,0,0,0-.63-.78,2.92,2.92,0,0,0-.86-.51,3.43,3.43,0,0,0-1.17-.18,3.87,3.87,0,0,0-2,.44,1.49,1.49,0,0,0-.8,1.4,1.89,1.89,0,0,0,.24.92,2,2,0,0,0,.92.76,6.15,6.15,0,0,0,1.91.45,5,5,0,0,1,3,1.16,3.26,3.26,0,0,1,1.06,2.55,3.16,3.16,0,0,1-.38,1.58,3.39,3.39,0,0,1-1,1.13,4.55,4.55,0,0,1-1.44.68A6.25,6.25,0,0,1,670.64,635.22Z"/><path class="cls-2" d="M681.65,635.22a6,6,0,0,1-1.95-.32,5.3,5.3,0,0,1-1.62-.9,3.44,3.44,0,0,1-1-1.33.62.62,0,0,1,0-.62.81.81,0,0,1,.57-.37.83.83,0,0,1,.57.09.92.92,0,0,1,.42.45,2,2,0,0,0,.64.74,3.41,3.41,0,0,0,1.06.54,4.26,4.26,0,0,0,2.73,0,2.6,2.6,0,0,0,1-.69,1.69,1.69,0,0,0,.4-1.13,2.12,2.12,0,0,0-.67-1.52,3.47,3.47,0,0,0-2.18-.83,5.46,5.46,0,0,1-3.12-1.17,3.06,3.06,0,0,1-1.14-2.42,2.79,2.79,0,0,1,.59-1.79,3.74,3.74,0,0,1,1.61-1.12,6.29,6.29,0,0,1,2.27-.38,4.89,4.89,0,0,1,1.7.27,4,4,0,0,1,1.27.75,5.05,5.05,0,0,1,.95,1.14,1,1,0,0,1,.18.66.67.67,0,0,1-.31.49.77.77,0,0,1-.66.08,1,1,0,0,1-.53-.42,2.85,2.85,0,0,0-.62-.78,3.06,3.06,0,0,0-.86-.51,3.47,3.47,0,0,0-1.17-.18,3.93,3.93,0,0,0-2,.44,1.51,1.51,0,0,0-.8,1.4,1.9,1.9,0,0,0,.25.92,2,2,0,0,0,.91.76,6.22,6.22,0,0,0,1.92.45,5,5,0,0,1,3,1.16,3.27,3.27,0,0,1,1.07,2.55,3.16,3.16,0,0,1-.38,1.58,3.42,3.42,0,0,1-1,1.13,4.35,4.35,0,0,1-1.44.68A6.18,6.18,0,0,1,681.65,635.22Z"/><path class="cls-2" d="M690.71,635.06a.78.78,0,0,1-.51-.18,1,1,0,0,1-.32-.48l-3.22-10.69a1,1,0,0,1,0-.84.65.65,0,0,1,.6-.31.89.89,0,0,1,.5.15.81.81,0,0,1,.32.47l2.8,9.76h-.35l2.59-9.66a.71.71,0,0,1,.29-.4.84.84,0,0,1,.51-.16,1,1,0,0,1,.49.14.6.6,0,0,1,.29.4l2.61,9.68H697l2.82-9.84a.74.74,0,0,1,.81-.54.55.55,0,0,1,.58.34,1.39,1.39,0,0,1,0,.81L698,634.38a1.08,1.08,0,0,1-.32.49.75.75,0,0,1-.51.19.77.77,0,0,1-.52-.2,1,1,0,0,1-.31-.46l-2.58-9.95h.39l-2.61,9.93a1.09,1.09,0,0,1-.33.49A.71.71,0,0,1,690.71,635.06Z"/><path class="cls-2" d="M708,635.22a6.74,6.74,0,0,1-2.58-.48,5.76,5.76,0,0,1-2-1.32,6,6,0,0,1-1.3-2,7.32,7.32,0,0,1,0-5.16,6.1,6.1,0,0,1,1.3-2,5.93,5.93,0,0,1,2-1.33,6.93,6.93,0,0,1,2.58-.47,6.82,6.82,0,0,1,2.56.47,5.9,5.9,0,0,1,3.32,3.35,7.32,7.32,0,0,1,0,5.16,5.86,5.86,0,0,1-1.31,2,5.76,5.76,0,0,1-2,1.32A6.63,6.63,0,0,1,708,635.22Zm0-1.51a4.78,4.78,0,0,0,1.91-.37,4.55,4.55,0,0,0,2.49-2.6,5.55,5.55,0,0,0,0-3.88,4.49,4.49,0,0,0-2.49-2.59,5,5,0,0,0-1.91-.37,5,5,0,0,0-1.92.37,4.51,4.51,0,0,0-1.5,1,4.85,4.85,0,0,0-1,1.56,5.41,5.41,0,0,0,0,3.88,4.85,4.85,0,0,0,1,1.56,4.54,4.54,0,0,0,1.5,1A4.83,4.83,0,0,0,708,633.71Z"/><path class="cls-2" d="M717.83,635.06a.79.79,0,0,1-.59-.24.81.81,0,0,1-.24-.6V623.39a.81.81,0,0,1,.24-.6.82.82,0,0,1,.59-.23h2.88a4.47,4.47,0,0,1,2.13.5,3.7,3.7,0,0,1,1.44,1.39,3.93,3.93,0,0,1,.52,2,3.57,3.57,0,0,1-2,3.26,4.58,4.58,0,0,1-2.13.48h-2.05v4a.85.85,0,0,1-.23.6A.81.81,0,0,1,717.83,635.06Zm.83-6.36h2.05a2.79,2.79,0,0,0,1.29-.28,2.09,2.09,0,0,0,1.2-1.92,2.35,2.35,0,0,0-.32-1.25,2.18,2.18,0,0,0-.88-.85,2.67,2.67,0,0,0-1.29-.3h-2.05Zm5.81,6.36a.92.92,0,0,1-.41-.1.81.81,0,0,1-.31-.3L720.87,630l1.61-.47,2.63,4.23a.84.84,0,0,1,.08.87A.75.75,0,0,1,724.47,635.06Z"/><path class="cls-2" d="M727.94,635.06a.79.79,0,0,1-.59-.24.81.81,0,0,1-.24-.6V623.39a.81.81,0,0,1,.24-.6.82.82,0,0,1,.59-.23h2.9a6.51,6.51,0,0,1,2.5.46,5.77,5.77,0,0,1,2,1.29,5.88,5.88,0,0,1,1.28,2,7.25,7.25,0,0,1,0,5,5.88,5.88,0,0,1-1.28,2,5.79,5.79,0,0,1-2,1.3,6.7,6.7,0,0,1-2.5.46Zm.83-1.48h2.07a4.55,4.55,0,0,0,2.37-.61,4.44,4.44,0,0,0,1.63-1.7,5.49,5.49,0,0,0,0-4.95,4.46,4.46,0,0,0-1.63-1.68,4.64,4.64,0,0,0-2.37-.61h-2.07Z"/><path class="cls-2" d="M722.05,507a8,8,0,0,1-2.68-.44,6.84,6.84,0,0,1-2.22-1.23,4.86,4.86,0,0,1-1.39-1.83.86.86,0,0,1,0-.85,1.1,1.1,0,0,1,.78-.51,1.07,1.07,0,0,1,.78.12,1.34,1.34,0,0,1,.59.63,2.71,2.71,0,0,0,.87,1,4.89,4.89,0,0,0,1.46.75,5.65,5.65,0,0,0,1.8.28,5.54,5.54,0,0,0,2-.33,3.49,3.49,0,0,0,1.44-.95,2.26,2.26,0,0,0,.55-1.55,2.88,2.88,0,0,0-.91-2.09,4.85,4.85,0,0,0-3-1.15,7.51,7.51,0,0,1-4.29-1.6,4.21,4.21,0,0,1-1.57-3.33,3.78,3.78,0,0,1,.82-2.46,5.07,5.07,0,0,1,2.21-1.54,8.78,8.78,0,0,1,3.11-.53,6.6,6.6,0,0,1,2.34.38,5.54,5.54,0,0,1,1.75,1,6.83,6.83,0,0,1,1.3,1.56,1.34,1.34,0,0,1,.25.92.91.91,0,0,1-.42.67,1.07,1.07,0,0,1-.91.11,1.27,1.27,0,0,1-.72-.58,4,4,0,0,0-.86-1.07,3.71,3.71,0,0,0-1.19-.7,4.82,4.82,0,0,0-1.61-.25,5.29,5.29,0,0,0-2.72.61,2,2,0,0,0-1.1,1.92,2.55,2.55,0,0,0,.34,1.27,2.72,2.72,0,0,0,1.25,1,8.39,8.39,0,0,0,2.63.62,6.84,6.84,0,0,1,4.08,1.59,4.51,4.51,0,0,1,1.46,3.51,4.45,4.45,0,0,1-.51,2.18,4.9,4.9,0,0,1-1.39,1.55,6,6,0,0,1-2,.93A8.35,8.35,0,0,1,722.05,507Z"/><path class="cls-2" d="M732.88,506.8a1.13,1.13,0,0,1-1.15-1.14v-14.9a1.09,1.09,0,0,1,.33-.82,1.14,1.14,0,0,1,.82-.32,1.1,1.1,0,0,1,1.14,1.14v14.9a1.13,1.13,0,0,1-.32.81A1.09,1.09,0,0,1,732.88,506.8Z"/><path class="cls-2" d="M746.12,507a8.31,8.31,0,0,1-6-2.54,8.63,8.63,0,0,1-1.8-2.8,9.06,9.06,0,0,1-.65-3.48,8.89,8.89,0,0,1,.65-3.44,8.63,8.63,0,0,1,1.8-2.8,8.52,8.52,0,0,1,2.7-1.88,8.21,8.21,0,0,1,3.34-.68,8.75,8.75,0,0,1,2.92.44,8.43,8.43,0,0,1,2.45,1.45,1,1,0,0,1,.27.28.92.92,0,0,1,.14.28,1.72,1.72,0,0,1,0,.34.94.94,0,0,1-.3.71,1.13,1.13,0,0,1-.72.31,1.16,1.16,0,0,1-.81-.29,6.47,6.47,0,0,0-1.68-1.08,5.91,5.91,0,0,0-2.3-.37,5.61,5.61,0,0,0-2.44.53,6.26,6.26,0,0,0-2,1.45,6.62,6.62,0,0,0-1.36,2.14,7.39,7.39,0,0,0,0,5.24,6.62,6.62,0,0,0,1.36,2.14,6.26,6.26,0,0,0,2,1.45,6.1,6.1,0,0,0,4.56.13,8.19,8.19,0,0,0,1.93-1.07,1.15,1.15,0,0,1,.78-.25,1,1,0,0,1,.65.31,1.05,1.05,0,0,1,.26.75,1.25,1.25,0,0,1-.07.43,1.13,1.13,0,0,1-.28.39,8.31,8.31,0,0,1-2.53,1.44A8.8,8.8,0,0,1,746.12,507Zm5.74-2.73-2.2-.44v-3.93h-3a1.21,1.21,0,0,1-.82-.29,1,1,0,0,1,0-1.45,1.21,1.21,0,0,1,.82-.29h4.11a1.07,1.07,0,0,1,.81.32,1.12,1.12,0,0,1,.31.83Z"/><path class="cls-2" d="M756.64,506.8a1.09,1.09,0,0,1-.81-.33,1.13,1.13,0,0,1-.32-.81v-14.9a1.1,1.1,0,0,1,1.13-1.14,1.11,1.11,0,0,1,.88.42l9.59,12.76v-12a1.09,1.09,0,0,1,.33-.82,1.13,1.13,0,0,1,.81-.32,1.11,1.11,0,0,1,.82.32,1.15,1.15,0,0,1,.3.82v14.9a1.16,1.16,0,0,1-.3.81,1.08,1.08,0,0,1-.82.33,1.24,1.24,0,0,1-.47-.1.93.93,0,0,1-.41-.29l-9.59-12.76v12a1.13,1.13,0,0,1-.32.81A1.09,1.09,0,0,1,756.64,506.8Z"/><path class="cls-2" d="M781.36,506.8a1.13,1.13,0,0,1-1.14-1.14v-14.9a1.09,1.09,0,0,1,.33-.82,1.14,1.14,0,0,1,2,.82v14.9a1.13,1.13,0,0,1-.32.81A1.1,1.1,0,0,1,781.36,506.8Z"/><path class="cls-2" d="M788,506.8a1.06,1.06,0,0,1-.8-.33,1.09,1.09,0,0,1-.32-.81v-14.9a1.09,1.09,0,0,1,1.12-1.14,1.11,1.11,0,0,1,.88.42l9.59,12.76v-12a1.09,1.09,0,0,1,.33-.82,1.14,1.14,0,0,1,.82-.32,1.1,1.1,0,0,1,.81.32,1.16,1.16,0,0,1,.31.82v14.9a1.17,1.17,0,0,1-.31.81,1.07,1.07,0,0,1-.81.33,1.25,1.25,0,0,1-.48-.1.85.85,0,0,1-.4-.29l-9.6-12.76v12a1.09,1.09,0,0,1-.32.81A1.08,1.08,0,0,1,788,506.8Z"/><rect class="cls-2" x="687.5" y="757.01" width="142.37" height="34.29" rx="15.64"/><path class="cls-3" d="M730.63,781.35a6.06,6.06,0,0,1-2-.32,5,5,0,0,1-1.61-.9,3.44,3.44,0,0,1-1-1.32.64.64,0,0,1,0-.63.82.82,0,0,1,.57-.37.79.79,0,0,1,.56.09,1,1,0,0,1,.43.46,2.13,2.13,0,0,0,.63.73,3.54,3.54,0,0,0,1.06.55,4.15,4.15,0,0,0,1.32.21,4,4,0,0,0,1.41-.24,2.62,2.62,0,0,0,1.05-.7,1.63,1.63,0,0,0,.4-1.13,2.13,2.13,0,0,0-.66-1.52,3.56,3.56,0,0,0-2.19-.83,5.51,5.51,0,0,1-3.12-1.17,3.06,3.06,0,0,1-1.13-2.41,2.77,2.77,0,0,1,.59-1.8,3.68,3.68,0,0,1,1.61-1.12,6.45,6.45,0,0,1,2.26-.38,4.85,4.85,0,0,1,1.7.27,4.08,4.08,0,0,1,1.28.75,5,5,0,0,1,.94,1.14,1,1,0,0,1,.18.67.63.63,0,0,1-.31.48.71.71,0,0,1-.65.08.88.88,0,0,1-.53-.41,2.89,2.89,0,0,0-.63-.79,2.7,2.7,0,0,0-.86-.5,3.41,3.41,0,0,0-1.17-.19,3.77,3.77,0,0,0-2,.45,1.5,1.5,0,0,0-.8,1.39,1.79,1.79,0,0,0,.25.92,1.91,1.91,0,0,0,.91.76,5.63,5.63,0,0,0,1.91.45,5.09,5.09,0,0,1,3,1.16,3.29,3.29,0,0,1,1.06,2.55,3.22,3.22,0,0,1-.37,1.59,3.52,3.52,0,0,1-1,1.13,4.56,4.56,0,0,1-1.44.68A6.22,6.22,0,0,1,730.63,781.35Z"/><path class="cls-3" d="M742.9,781.45a6.18,6.18,0,0,1-2.72-.57,4.49,4.49,0,0,1-1.85-1.58,4.1,4.1,0,0,1-.66-2.3v-7.47a.78.78,0,0,1,.24-.6.79.79,0,0,1,.59-.24.8.8,0,0,1,.83.84V777a2.63,2.63,0,0,0,.46,1.53,3,3,0,0,0,1.26,1,4.37,4.37,0,0,0,1.85.37,4,4,0,0,0,1.78-.37,3,3,0,0,0,1.22-1,2.77,2.77,0,0,0,.44-1.53v-7.47a.78.78,0,0,1,.24-.6.81.81,0,0,1,.59-.24.76.76,0,0,1,.59.24.81.81,0,0,1,.23.6V777a4.18,4.18,0,0,1-.65,2.3,4.4,4.4,0,0,1-1.8,1.58A5.89,5.89,0,0,1,742.9,781.45Z"/><path class="cls-3" d="M752,781.19a.79.79,0,0,1-.59-.24.81.81,0,0,1-.24-.59V769.53a.78.78,0,0,1,.24-.6.79.79,0,0,1,.59-.24h3.82a4.11,4.11,0,0,1,1.91.43,3.21,3.21,0,0,1,1.3,1.17,3.25,3.25,0,0,1,.47,1.73,2.49,2.49,0,0,1-.42,1.42,3,3,0,0,1-1.16,1,3.1,3.1,0,0,1,1.69,1,2.9,2.9,0,0,1,.64,2,3.57,3.57,0,0,1-2,3.28,4.46,4.46,0,0,1-2.13.49Zm.83-7.36h3a2.39,2.39,0,0,0,1.5-.45,1.6,1.6,0,0,0,.58-1.36,1.58,1.58,0,0,0-.58-1.35,2.45,2.45,0,0,0-1.5-.44h-3Zm0,5.82h3.33a3.06,3.06,0,0,0,1.29-.25,2,2,0,0,0,.88-.75,2.17,2.17,0,0,0,.32-1.23,1.83,1.83,0,0,0-1.2-1.82,3.23,3.23,0,0,0-1.29-.23h-3.33Z"/><path class="cls-3" d="M763.59,781.19a.82.82,0,0,1-.84-.83V769.53a.78.78,0,0,1,.24-.6.81.81,0,0,1,.6-.24.8.8,0,0,1,.73.45l5,10h-.51l4.88-10a.8.8,0,0,1,.73-.45.81.81,0,0,1,.6.24.78.78,0,0,1,.24.6v10.83a.84.84,0,0,1-.84.83.82.82,0,0,1-.83-.83v-8.53l.32-.08-4.19,8.54a.82.82,0,0,1-.72.42.8.8,0,0,1-.77-.5l-4.14-8.3.32-.08v8.53a.82.82,0,0,1-.83.83Z"/><path class="cls-3" d="M779.3,781.19a.79.79,0,0,1-.59-.24.81.81,0,0,1-.24-.59V769.53a.78.78,0,0,1,.24-.6.79.79,0,0,1,.59-.24.8.8,0,0,1,.83.84v10.83a.84.84,0,0,1-.23.59A.81.81,0,0,1,779.3,781.19Z"/><path class="cls-3" d="M782.74,770.23a.75.75,0,0,1-.77-.77.72.72,0,0,1,.22-.55.75.75,0,0,1,.55-.22h8.56a.75.75,0,0,1,.77.77.75.75,0,0,1-.22.55.72.72,0,0,1-.55.22Zm4.29,11a.82.82,0,0,1-.84-.83V768.69h1.67v11.67a.82.82,0,0,1-.83.83Z"/><polyline class="cls-4" points="954.28 892.11 951.85 892.11 929.99 892.11 628.08 892.11 606.23 892.11 509.81 892.11 509.77 892.11 470.27 892.11 467.42 892.11 466.38 892.11 465.56 892.11 350.18 892.11 296.58 892.11 276.83 892.11 245.72 892.11"/></svg>