<svg width="185" height="169" viewBox="0 0 185 169" fill="none" xmlns="http://www.w3.org/2000/svg">
<path d="M92.0514 168.406C142.89 168.406 184.103 130.707 184.103 84.203C184.103 37.699 142.89 0 92.0514 0C41.2128 0 0 37.699 0 84.203C0 130.707 41.2128 168.406 92.0514 168.406Z" fill="#1D252E"/>
<path d="M92.0514 160.786C138.289 160.786 175.772 126.499 175.772 84.2036C175.772 41.9084 138.289 7.62134 92.0514 7.62134C45.814 7.62134 8.33115 41.9084 8.33115 84.2036C8.33115 126.499 45.814 160.786 92.0514 160.786Z" stroke="#9ED4C0" stroke-width="4" stroke-miterlimit="10"/>
<path d="M128.007 82.145L98.151 81.303V120.164H83.7482V80.8948L56.0956 80.1208L90.9449 48.2427L128.007 82.145Z" fill="white"/>
</svg>
