<svg id="Layer_1" data-name="Layer 1" xmlns="http://www.w3.org/2000/svg" viewBox="0 0 1200 1200"><defs><style>.cls-1{fill:#e9e8e8;}.cls-2,.cls-7{fill:#fff;}.cls-3,.cls-8{fill:#1d252e;}.cls-10,.cls-4,.cls-9{fill:none;}.cls-10,.cls-4,.cls-7{stroke:#1d252e;stroke-width:4px;}.cls-10,.cls-4,.cls-7,.cls-9{stroke-linecap:round;}.cls-4,.cls-7,.cls-9{stroke-linejoin:round;}.cls-5{fill:#1d252f;}.cls-6{fill:#9ed4c0;}.cls-8{font-size:20.96px;font-family:ProximaNova-Black, Proxima Nova;font-weight:800;}.cls-9{stroke:#fff;stroke-width:1.76px;}.cls-11{fill:#9dd5c0;}.cls-12{fill:#9cd3bf;}</style></defs><path id="Path-141" class="cls-1" d="M441.86,467.29c110.69-74.84,365-274.08,498.13-158.15s60.26,672.6-332,612.66c-147.36-22.52-370-34.95-401.22-104C154.88,702.94,372.75,514,441.86,467.29Z"/><path class="cls-2" d="M977.78,393.72a46.41,46.41,0,0,1-92.8,0Z"/><rect class="cls-3" x="880.35" y="361.32" width="100.73" height="32.4"/><path class="cls-4" d="M976.82,402.06a46.43,46.43,0,0,1-90.7.81"/><path class="cls-5" d="M187.05,355V237.58a61.1,61.1,0,0,1,61-61H520.74a61.11,61.11,0,0,1,61,61v47.7h2.32v41.1h-2.32V336h2.32v64.77h-2.32v2.43h2.32v64.76h-2.32V892.6a61.1,61.1,0,0,1-61,61H248.08a61.09,61.09,0,0,1-61-61V449.47h-2.33V355Z"/><path class="cls-6" d="M212,233.28v667.9c0,15.38,12.38,28,27.9,28.76.5,0,1,0,1.51,0h286c.51,0,1,0,1.51,0,15.52-.78,27.91-13.38,27.91-28.76V233.28c0-15.88-13.2-28.79-29.42-28.79H477.91v5.86a19.51,19.51,0,0,1-19.73,19.29H310.65a19.51,19.51,0,0,1-19.71-19.29v-5.86H241.43C225.21,204.49,212,217.4,212,233.28Z"/><rect class="cls-3" x="204.77" y="718.99" width="353.51" height="214.92"/><circle class="cls-2" cx="336.09" cy="209.09" r="4.6"/><rect class="cls-2" x="349.61" y="204.49" width="82.77" height="9.2" rx="4.6" transform="translate(781.98 418.18) rotate(180)"/><polygon class="cls-2" points="476.82 447.36 383.78 531.96 290.75 447.36 310.31 344.83 383.78 303.18 457.25 344.83 476.82 447.36"/><polygon class="cls-4" points="476.82 447.36 383.78 531.96 290.75 447.36 310.31 344.83 383.78 303.18 457.25 344.83 476.82 447.36"/><polygon class="cls-6" points="462.86 442.89 383.78 514.79 304.71 442.89 321.33 355.75 383.78 320.35 446.23 355.75 462.86 442.89"/><path class="cls-7" d="M363.75,450.44a6,6,0,0,1-4.24-1.76l-23.93-23.93a6,6,0,0,1,8.48-8.49L363.75,436,423.5,376.2a6,6,0,0,1,8.49,8.49l-64,64A6,6,0,0,1,363.75,450.44Z"/><rect class="cls-7" x="224.8" y="572.07" width="38.43" height="38.43"/><rect class="cls-7" x="280.37" y="572.07" width="38.43" height="38.43"/><rect class="cls-7" x="335.94" y="572.07" width="38.43" height="38.43"/><rect class="cls-7" x="391.52" y="572.07" width="38.43" height="38.43"/><rect class="cls-7" x="447.09" y="572.07" width="38.43" height="38.43"/><rect class="cls-7" x="502.66" y="572.07" width="38.43" height="38.43"/><rect class="cls-3" x="303.94" y="653.43" width="160.97" height="38.77" rx="17.68"/><path class="cls-2" d="M352.67,681a6.72,6.72,0,0,1-2.2-.36,5.66,5.66,0,0,1-1.82-1,4,4,0,0,1-1.13-1.49.7.7,0,0,1,0-.7.88.88,0,0,1,.64-.42,1,1,0,0,1,.64.1,1.08,1.08,0,0,1,.47.52,2.35,2.35,0,0,0,.71.82,4,4,0,0,0,1.2.62,4.82,4.82,0,0,0,1.48.23,4.58,4.58,0,0,0,1.59-.27,2.84,2.84,0,0,0,1.18-.78,1.86,1.86,0,0,0,.45-1.27,2.36,2.36,0,0,0-.75-1.71,3.92,3.92,0,0,0-2.45-.94,6.14,6.14,0,0,1-3.51-1.31,3.42,3.42,0,0,1-1.28-2.72,3.16,3.16,0,0,1,.66-2,4.22,4.22,0,0,1,1.81-1.26,7.33,7.33,0,0,1,2.55-.43,5.37,5.37,0,0,1,1.92.31,4.54,4.54,0,0,1,1.43.84,5.52,5.52,0,0,1,1.06,1.28,1.14,1.14,0,0,1,.21.75.76.76,0,0,1-.35.55.88.88,0,0,1-.74.09,1.05,1.05,0,0,1-.6-.47,3.06,3.06,0,0,0-.7-.88,3.11,3.11,0,0,0-1-.57,3.71,3.71,0,0,0-1.31-.21,4.39,4.39,0,0,0-2.24.5,1.69,1.69,0,0,0-.9,1.57,2.16,2.16,0,0,0,.28,1,2.26,2.26,0,0,0,1,.85,6.77,6.77,0,0,0,2.15.51,5.68,5.68,0,0,1,3.34,1.3,3.71,3.71,0,0,1,1.2,2.87,3.65,3.65,0,0,1-.43,1.79,4,4,0,0,1-1.13,1.27,5.25,5.25,0,0,1-1.62.76A6.93,6.93,0,0,1,352.67,681Z"/><path class="cls-2" d="M366.47,681.06a7,7,0,0,1-3.06-.64,5.09,5.09,0,0,1-2.08-1.77,4.67,4.67,0,0,1-.74-2.59v-8.41a.92.92,0,0,1,.93-.94.91.91,0,0,1,.94.94v8.41a3,3,0,0,0,.51,1.72,3.59,3.59,0,0,0,1.42,1.17,4.92,4.92,0,0,0,2.08.42,4.57,4.57,0,0,0,2-.42,3.5,3.5,0,0,0,1.37-1.17,3.06,3.06,0,0,0,.49-1.72v-8.41a.89.89,0,0,1,.27-.67.92.92,0,0,1,.67-.27.87.87,0,0,1,.67.27,1,1,0,0,1,.25.67v8.41a4.75,4.75,0,0,1-.73,2.59,4.94,4.94,0,0,1-2,1.77A6.55,6.55,0,0,1,366.47,681.06Z"/><path class="cls-2" d="M376.73,680.77a.92.92,0,0,1-.93-.93V667.65a.92.92,0,0,1,.93-.94H381a4.63,4.63,0,0,1,2.15.48,3.7,3.7,0,0,1,1.45,1.32,3.57,3.57,0,0,1,.54,2,2.76,2.76,0,0,1-.48,1.59,3.29,3.29,0,0,1-1.31,1.13,3.5,3.5,0,0,1,1.91,1.13,3.3,3.3,0,0,1,.72,2.21,4.13,4.13,0,0,1-.58,2.2,4.07,4.07,0,0,1-1.63,1.5,5.06,5.06,0,0,1-2.4.55Zm.94-8.28H381a2.73,2.73,0,0,0,1.68-.5,1.81,1.81,0,0,0,.66-1.53,1.77,1.77,0,0,0-.66-1.52,2.73,2.73,0,0,0-1.68-.5h-3.37Zm0,6.55h3.74a3.49,3.49,0,0,0,1.46-.28,2.35,2.35,0,0,0,1-.85,2.5,2.5,0,0,0,.36-1.39,2.12,2.12,0,0,0-.36-1.27,2.26,2.26,0,0,0-1-.77,3.84,3.84,0,0,0-1.46-.26h-3.74Z"/><path class="cls-2" d="M389.75,680.77a.92.92,0,0,1-.94-.93V667.65a.89.89,0,0,1,.27-.67.9.9,0,0,1,.67-.27.92.92,0,0,1,.83.51l5.63,11.28h-.58l5.49-11.28a.91.91,0,0,1,.83-.51.92.92,0,0,1,.67.27.89.89,0,0,1,.27.67v12.19a.91.91,0,0,1-.28.66.93.93,0,0,1-.66.27.92.92,0,0,1-.93-.93v-9.6l.36-.09-4.72,9.61a.91.91,0,0,1-.81.47.88.88,0,0,1-.86-.56l-4.67-9.34.36-.09v9.6a.92.92,0,0,1-.93.93Z"/><path class="cls-2" d="M407.42,680.77a.92.92,0,0,1-.93-.93V667.65a.92.92,0,0,1,.93-.94.91.91,0,0,1,.94.94v12.19a.93.93,0,0,1-.26.66A.91.91,0,0,1,407.42,680.77Z"/><path class="cls-2" d="M411.29,668.44a.87.87,0,1,1,0-1.73h9.63a.85.85,0,0,1,.62.25.89.89,0,0,1,0,1.24.84.84,0,0,1-.62.24Zm4.83,12.33a.92.92,0,0,1-.94-.93V666.71h1.87v13.13a.92.92,0,0,1-.93.93Z"/><path class="cls-5" d="M262.22,283.17l-4.09-23.38H262l1.24,9.51c.41,3.15.91,6.46,1.12,9.15h.07c.2-2.54.74-5.88,1.12-9.08l1.17-9.58h3.86l-4,23.38Z"/><path class="cls-5" d="M284.46,272.49h-5.14v7.36h5.92l-.45,3.32h-9.08V259.79h9v3.34h-5.42v6h5.14Z"/><path class="cls-5" d="M294.09,272.71v10.46h-3.61V259.79h5c3.55,0,5.65,1.42,5.65,5.63v.89c0,3.59-1.47,4.51-2.38,4.88,1.37.64,2.15,1.62,2.15,4.79a64.69,64.69,0,0,0,.21,7.19h-3.48a50.42,50.42,0,0,1-.25-6.95c0-2.85-.36-3.51-2.46-3.51Zm0-3h.82c1.91,0,2.61-.71,2.61-3.26v-.8c0-1.81-.37-2.91-2.41-2.91h-1Z"/><path class="cls-5" d="M310.92,259.79v23.38h-3.61V259.79Z"/><path class="cls-5" d="M317.6,259.79h9.11v3.34h-5.5v6.15h5.24v3.35h-5.24v10.54H317.6Z"/><path class="cls-5" d="M335.94,259.79v23.38h-3.6V259.79Z"/><path class="cls-5" d="M352.77,276.18v.91c0,2.67-.45,6.42-5.39,6.42-4.33,0-5.25-2.71-5.25-6.27v-11.8c0-3.6,1.64-6,5.31-6,4.38,0,5.22,2.91,5.22,6.15v1.05h-3.61v-1.47c0-1.56-.37-2.44-1.62-2.44s-1.63.85-1.63,2.45v12.36c0,1.53.31,2.71,1.67,2.71s1.65-1,1.65-2.77v-1.3Z"/><path class="cls-5" d="M361.91,276.91l-.82,6.26h-3.67l3.77-23.38h5.1l3.91,23.38h-3.77l-.92-6.26Zm3.17-3.31c-.53-4-1-7.74-1.31-10.39h-.13c-.1,1.93-.81,6.94-1.27,10.39Z"/><path class="cls-5" d="M376.3,263.13h-3.75v-3.34h11.14v3.34h-3.78v20H376.3Z"/><path class="cls-5" d="M392.4,259.79v23.38h-3.61V259.79Z"/><path class="cls-5" d="M410,266v10.92c0,4.48-1.9,6.6-5.87,6.6-3.8,0-5.51-2.17-5.51-6.54V266c0-4.47,2.26-6.52,5.74-6.52S410,261.49,410,266Zm-7.7-.35V277.4c0,1.94.7,2.85,2,2.85s2-.85,2-2.9V265.61c0-1.85-.57-2.88-2-2.88C403,262.73,402.26,263.66,402.26,265.64Z"/><path class="cls-5" d="M416.13,283.17V259.79h4.17c.93,3.29,3.72,14.84,4,16.08h0c-.16-2.88-.17-6.17-.17-10v-6.07h3.33v23.38h-4c-.74-2.8-3.85-15.62-4.09-16.6h0c.17,2.83.16,6,.16,10.2v6.4Z"/><path class="cls-5" d="M452.34,276.18v.91c0,2.67-.44,6.42-5.39,6.42-4.33,0-5.25-2.71-5.25-6.27v-11.8c0-3.6,1.64-6,5.31-6,4.39,0,5.22,2.91,5.22,6.15v1.05h-3.61v-1.47c0-1.56-.36-2.44-1.62-2.44s-1.63.85-1.63,2.45v12.36c0,1.53.31,2.71,1.68,2.71s1.64-1,1.64-2.77v-1.3Z"/><path class="cls-5" d="M469.21,266v10.92c0,4.48-1.9,6.6-5.86,6.6-3.8,0-5.51-2.17-5.51-6.54V266c0-4.47,2.25-6.52,5.74-6.52S469.21,261.49,469.21,266Zm-7.7-.35V277.4c0,1.94.7,2.85,2,2.85s2-.85,2-2.9V265.61c0-1.85-.57-2.88-2-2.88C462.21,262.73,461.51,263.66,461.51,265.64Z"/><path class="cls-5" d="M475.38,259.79h5c5,0,6.17,2.57,6.17,6.91v9c0,3.58-.62,7.51-6.18,7.51h-5ZM479,280.1h1.15c2.37,0,2.74-1.53,2.74-4v-9.74c0-2.15-.38-3.52-2.76-3.52H479Z"/><path class="cls-5" d="M501.45,272.49h-5.14v7.36h5.93l-.46,3.32h-9.07V259.79h9v3.34h-5.43v6h5.14Z"/><rect class="cls-2" x="224.31" y="735.82" width="104.18" height="41.86" rx="5.56"/><rect class="cls-2" x="332.68" y="735.82" width="104.18" height="41.86" rx="5.56"/><rect class="cls-2" x="441.04" y="735.82" width="104.18" height="41.86" rx="5.56"/><rect class="cls-2" x="224.31" y="783.26" width="104.18" height="41.86" rx="5.56"/><rect class="cls-2" x="332.68" y="783.26" width="104.18" height="41.86" rx="5.56"/><rect class="cls-2" x="441.04" y="783.26" width="104.18" height="41.86" rx="5.56"/><rect class="cls-2" x="224.31" y="830.7" width="104.18" height="41.86" rx="5.56"/><rect class="cls-2" x="332.68" y="830.7" width="104.18" height="41.86" rx="5.56"/><rect class="cls-2" x="332.68" y="878.13" width="104.18" height="41.86" rx="5.56"/><rect class="cls-2" x="441.04" y="830.7" width="104.18" height="41.86" rx="5.56"/><text class="cls-8" transform="translate(270.43 762.34)">1</text><text class="cls-8" transform="translate(376.67 762.34)">2</text><text class="cls-8" transform="translate(485.82 762.34)">3</text><text class="cls-8" transform="translate(270.43 810.8)">4</text><text class="cls-8" transform="translate(376.67 810.8)">5</text><text class="cls-8" transform="translate(485.82 810.8)">6</text><text class="cls-8" transform="translate(270.43 857.76)">7</text><text class="cls-8" transform="translate(376.67 857.76)">8</text><text class="cls-8" transform="translate(376.67 905.31)">0</text><text class="cls-8" transform="translate(485.82 857.76)">9</text><line class="cls-9" x1="494.68" y1="894.35" x2="500.64" y2="900.31"/><line class="cls-9" x1="500.64" y1="894.35" x2="494.68" y2="900.31"/><rect class="cls-9" x="490.84" y="890.51" width="13.65" height="13.65"/><line class="cls-9" x1="257.65" y1="890.42" x2="257.65" y2="900.25"/><line class="cls-9" x1="262.57" y1="895.34" x2="252.74" y2="895.34"/><line class="cls-9" x1="270.43" y1="891.19" x2="276.4" y2="899.71"/><line class="cls-9" x1="276.4" y1="891.19" x2="270.43" y2="899.71"/><line class="cls-9" x1="268.15" y1="895.34" x2="278.62" y2="895.34"/><line class="cls-9" x1="283.84" y1="893.59" x2="293.84" y2="893.59"/><line class="cls-9" x1="283.84" y1="897.41" x2="293.84" y2="897.41"/><line class="cls-9" x1="290.75" y1="890.5" x2="290.75" y2="900.5"/><line class="cls-9" x1="286.93" y1="890.5" x2="286.93" y2="900.5"/><path class="cls-2" d="M712,885.08c-27.25-6.24-56.78-10.78-61.32,1.14s-7.19,45.35,4.92,50.78,87.63,42.33,87.63,42.33l-25.66,11.13,28,16.63,51.59-2.78,37.39,17.17s47.21,6.11,65.37-.7,30.66-19.87,25-23.85-22.15-9.08-40.31-10.22c14.19-3.4,17.6-4.54,25-6.24s69.84-10.39,78.35-10.31,26.68-7.86,25.54-31.14-13.62-34.63-42.58-31.23S712,885.08,712,885.08Z"/><path id="Path-102" class="cls-3" d="M760.45,574q-9.57-14.75-6.22-25.87c3.35-11.13,14.85-27.77,37.81-31.79s46.34,10.29,57.8,30.55q11.46,20.25,10.41,47.78-3.32,9.89-9.76,11.93c-6.44,2-20.54,2.89-26.37-.43Q818.3,602.86,760.45,574Z"/><polygon id="Path-103" class="cls-2" points="763.28 573.1 762.39 590.9 770.23 608.84 783.79 619.33 795.91 622.38 801.96 641.39 805.36 654.25 786.11 658.74 792.45 678.65 847.94 682.17 864.75 658.32 854.29 654.8 836.04 651.86 824.5 613.28 830.09 597.64 830.77 584.2 838.62 580.72 837.04 567.14 829.19 562.49 817.74 563.6 807.14 554.01 805.42 543.7 781.01 567.45 763.28 573.1"/><path id="Path-86" class="cls-10" d="M763.28,573.09a45.44,45.44,0,0,0,5,32.78Q776.9,621.13,797,622l8.38,32.28a63.06,63.06,0,0,0-12.78,2.14"/><path id="Path-87" class="cls-10" d="M763.5,571.76q4.9,1.54,15.88-5.06t26-23a20.36,20.36,0,0,0,4.25,13.36,19.34,19.34,0,0,0,11,7.47q9.3-5.81,14.6,1.19c5.3,7,4.69,14.33,2.39,16.28-1.53,1.29-3.83,2-6.9,2.19q2.07,6-1.16,15.69t-5.76,11.25l10.8,40.92,18.43,3"/><path id="Path-98" class="cls-10" d="M793.26,621.63a21.8,21.8,0,0,0,8.54.11,35.71,35.71,0,0,0,11.85-4.32"/><path id="Path-104" class="cls-10" d="M850,610.42a11.39,11.39,0,0,0,6.28-2q3.48-2.11,6.37-8.88"/><path id="Path-105" class="cls-3" d="M852.05,614.3q2.73.45,8.18-2.6t7.07-10.45q4.82-1.53,12.54,6.31c7.74,7.84,8.53,20.56,14.39,25.52q5.85,5,16.09,7.54-27.06,12.35-41.84-.43T852.05,614.3Z"/><path id="Path-89" class="cls-3" d="M771.36,852.22c-24.7,30.58-63.59,22.84-67.43,34,0,.12,5.4,38.78,64.58,54.59,81.78,4.11,108.15,2.66,129.11,1.68,12-.56,82.42-23.19,77.59-34.38-14.14-32.76-58.27-30.17-68.48-55.63C894.79,842,790.11,842.75,771.36,852.22Z"/><path class="cls-4" d="M695.6,881.23a188.25,188.25,0,0,0-37.88-.57c-15.85,6.76-16.45,45.66-2.1,56.34l179,84.48s33.8,2.65,41.53,2.14S910,1022,921,1010.56s6.73-15.45-15.37-21.64-60.53,2.14-60.53,2.14L774.8,948.74"/><path class="cls-4" d="M901.65,981,988,970.16c33.4.07,33.53-63.47.13-63.54l-2.88-.09"/><polyline class="cls-4" points="796.32 960.28 907.46 937.27 894.28 935.99"/><path class="cls-4" d="M738.41,981.54l-20.82,8.92s16.06,13.68,28,16.63,47.5-1.35,47.5-1.35"/><path id="Path-93" class="cls-2" d="M784.23,745.58Q789,785.74,778.74,792c-6.85,4.16-38.52,6.55-82.52-17.05l-12.91.05q-25.5-21.19-27.8-25.52c-2.31-4.33,25.29-7.94,32.91-6.68q7.64,1.28,23.34,12.29l21.8,3,3.18-18.15C734.47,724.88,782,730.59,784.23,745.58Z"/><path id="Path-93-2" data-name="Path-93" class="cls-10" d="M763.65,794.14c-13.71-.57-35.95-5.39-67.43-19.22l-12.91.05q-25.5-21.19-27.8-25.52c-2.31-4.33,25.29-7.94,32.91-6.68q7.64,1.28,23.34,12.29l21.8,3,1.5-10.42"/><path id="Path-88" class="cls-11" d="M736.53,690.72l-4.65,50.07c8.71-.32,44.09,5.8,54.87,7.35q10.25-45.51,10.91-64.71C787.1,647.67,742.87,652.63,736.53,690.72Z"/><path id="Path-88-2" data-name="Path-88" class="cls-11" d="M884.57,751.27c-.79,2.91.38,11.61,1.93,14.33s20.23,86.91,20.23,86.91c-34.09,2.83-84.52,3.23-137.87,3.21,1.24-22.2-.87-70.82-.56-76.84.37-6.91-.19-10.74-2.54-14.55,0,0-24.63-81.34-16.4-93.51s16.33-15.69,37.88-15.76c2.1,8.33,11,18,22.13,21.54,13.82,4.46,29.32-3.9,53.08-22.58,11.32-3.26,33.26,6.62,41.93,19.6S885.35,748.36,884.57,751.27Z"/><path id="Path-93-3" data-name="Path-93" class="cls-2" d="M912.35,759.1q-1.76,40.39-12.9,44.9T785.2,774.61l-12.61,2.79q-29.42-15.28-32.59-19c-3.18-3.74,23-13.14,30.74-13.52q7.72-.39,25.42,7l64.18,11.32,1.71-4.72C862.24,743.33,912.53,743.94,912.35,759.1Z"/><path id="Path-88-3" data-name="Path-88" class="cls-11" d="M840.9,706.56l18.34,56.77c7.51-.19,48.38-4.42,63-9.44,6.32-25.27-5-60.76-8.66-75.07C890.5,642.66,835.71,662.41,840.9,706.56Z"/><path id="Path-93-4" data-name="Path-93" class="cls-10" d="M912.35,759.1q-1.76,40.39-12.9,44.9T785.2,774.61l-12.61,2.79q-29.42-15.28-32.59-19c-3.18-3.74,23-13.14,30.74-13.52q7.72-.39,25.42,7l64.18,11.32,1.71-4.72"/><path class="cls-10" d="M859.06,704.37c-.68,20.51-.1,31.25,1,37.65"/><path class="cls-10" d="M767.1,710.42c-3.47,8.81-4.53,22.51.5,29.06"/><path class="cls-11" d="M660.46,735l32.34-2.59a1.17,1.17,0,0,1,1.05.55l27.33,48.1a1.19,1.19,0,0,1-1,1.83l-33.62-.79a1.19,1.19,0,0,1-1-.59l-26.06-44.71A1.2,1.2,0,0,1,660.46,735Z"/><polyline class="cls-10" points="715.38 778.87 691.3 736.24 664.73 738.45"/><path class="cls-12" d="M929.09,326.23a35.81,35.81,0,0,1-13.46,30.09c-9.86,8.85-19.48,17.3-29,26.69-6,5.74-11.4,11.78-17.51,17.54l-.94-.32a49.4,49.4,0,0,1-.35-10.09c1.11-19,11-36.59,23.9-50.14,8-8.7,15.56-14.81,28.14-15.19a36.27,36.27,0,0,1,8.6.67l.66.75Z"/><path class="cls-12" d="M929,326.32c-1,8.36-6.35,15.9-14,18.3-5.05,1.43-10.37,1.66-15.53,2.33-10.68,1-20,6.62-30.29,9.42l-.79-.62a40.12,40.12,0,0,1,27.82-35.87,77.1,77.1,0,0,1,9.2-2.34,18,18,0,0,1,12.2,1,44.83,44.83,0,0,1,11,6.88l.38.93Z"/><path class="cls-12" d="M928.71,326.35c-9.6,9-23.83,7.56-35.08,3.7-7.87-2.38-15.35-1.64-23.56.58-10.07,2.63-20.29,6.77-30.48,9.95-2.19.74-4.45,1.42-6.84,2l-.64-.77c8.52-17.43,23.69-33.08,42.74-38.94A50,50,0,0,1,908.4,305c7,3.18,11,7.49,15.35,13.28,1.52,2.05,3.15,4.18,5.06,7.08l-.1,1Z"/><path class="cls-12" d="M928.2,327.13c-10.7,2.73-19.48-.64-26.74-7.4-4.64-5-8.7-10.29-13.49-15.07-9.94-10.19-22.92-19.47-32.86-30.56l.34-1a73.26,73.26,0,0,1,48.84,10.71A77,77,0,0,1,923,301.43a31.67,31.67,0,0,1,5.05,13.26,58.57,58.57,0,0,1,.75,11.65l-.62.79Z"/><path class="cls-12" d="M927.46,325.3c-6.82-9.85-2.82-23.27,6.34-30a42.34,42.34,0,0,1,14.26-6.55c21.42-5.47,47.1,5,62,20.55l-.33.94c-8.27,1.26-15.75-2.35-23.7-1-10.73,1.85-20.28,3-29.71,6.43a55.08,55.08,0,0,0-6.85,3.17c-3.65,1.61-8.74,2.62-13.3,4.21-2.21.69-4.56,1.6-7.74,2.53l-.94-.33Z"/><path class="cls-12" d="M1015.19,347.09c-1.94,1.23-15.38,2.87-25.76-2.38-5.2-2.31-11-4.86-16.17-7.06-12.59-5.07-24.81-10.95-38.51-11.59a40.73,40.73,0,0,0-6.5.49l-.6-.8c4.82-8.87,15.5-13,25-14.56,19-2.67,62.38,32.73,62.68,35.65l-.09.25Z"/><path class="cls-4" d="M907.88,363.26c-7.18,6.43-14.25,12.84-21.29,19.75-6,5.74-11.4,11.78-17.51,17.54l-.94-.32a49.4,49.4,0,0,1-.35-10.09c1.11-19,11-36.59,23.9-50.14,8-8.7,15.56-14.81,28.14-15.19a36.27,36.27,0,0,1,8.6.67l.66.75h0a35.81,35.81,0,0,1-13.46,30.09c-2.6,2.34-5.18,4.64-7.75,6.94"/><path class="cls-4" d="M879,353a98.83,98.83,0,0,1-9.82,3.37l-.79-.62a40.12,40.12,0,0,1,27.82-35.87,77.1,77.1,0,0,1,9.2-2.34,18,18,0,0,1,12.2,1,45,45,0,0,1,7.47,4.18"/><path class="cls-4" d="M877.24,329.08a65.45,65.45,0,0,0-7.17,1.55c-10.07,2.63-20.29,6.77-30.48,9.95-2.19.74-4.45,1.42-6.84,2l-.64-.77c8.52-17.43,23.69-33.08,42.74-38.94A50,50,0,0,1,908.4,305a33.91,33.91,0,0,1,12.08,9.21"/><path class="cls-4" d="M881.45,298.41c-8.67-7.87-18.46-15.52-26.34-24.31l.34-1a73.26,73.26,0,0,1,48.84,10.71A77,77,0,0,1,923,301.43"/><path class="cls-4" d="M924.58,318.9c-2.09-8.66,1.94-18.24,9.22-23.57a42.34,42.34,0,0,1,14.26-6.55c21.42-5.47,47.1,5,62,20.55l-.33.94c-8.27,1.26-15.75-2.35-23.7-1l-4.49.76"/><path class="cls-4" d="M941.81,314.14a51.12,51.12,0,0,1,10.79-2.95c19-2.67,62.38,32.73,62.68,35.65l-.09.25h0c-1.94,1.23-15.38,2.87-25.76-2.38-5.2-2.31-11-4.86-16.17-7.06"/><path class="cls-12" d="M920.64,326.59c7.08-8.86,19.15-10,28.83-5.75,5.26,2.42,9.25,6.54,13.24,10.52,14.13,15.14,24.56,34.06,28.81,54.54l-.7.71a56.27,56.27,0,0,1-6.71-1.56c-17.53-5.14-32.72-15.77-46.32-27.16-1.95-1.56-3.94-3.3-5.86-4.85a18.71,18.71,0,0,1-5.49-7.61c-2.22-6.05-3.21-11-5.94-17.85l.14-1Z"/><path class="cls-4" d="M924.92,322.53c7.09-5,16.62-5.19,24.55-1.69"/><path class="cls-4" d="M949.47,320.84h0c5.26,2.42,9.25,6.54,13.24,10.52,14.13,15.14,24.56,34.06,28.81,54.54l-.7.71a56.27,56.27,0,0,1-6.71-1.56c-15.2-4.46-28.64-13-40.81-22.66"/><path class="cls-12" d="M931.92,393.71c-13.17-9.65-22.72-28.67-22.32-44.87.86-7.29,6.46-14,13.74-16.91l1,.1c5.58,3.59,12,8.17,14.15,14.27,1.34,4.66,1.21,9.56,1.38,14.43,0,11-1.74,22.56-7,32.76l-1,.22Z"/><path class="cls-4" d="M931.92,393.71c-13.17-9.65-22.72-28.67-22.32-44.87.86-7.29,6.46-14,13.74-16.91l1,.1c5.58,3.59,12,8.17,14.15,14.27,1.34,4.66,1.21,9.56,1.38,14.43,0,11-1.74,22.56-7,32.76l-1,.22Z"/><line class="cls-4" x1="928.29" y1="176" x2="928.29" y2="225.28"/><path class="cls-4" d="M931.38,439c-26.73,0-31-41.71-31-41.71L928.29,225.3,964.59,399S958.25,439,931.38,439Z"/></svg>